<?xml version="1.0" encoding="UTF-8" standalone="no"?>
<!-- Created with Inkscape (http://www.inkscape.org/) -->

<svg
   xmlns:ns0="http://www.iki.fi/pav/software/textext/"
   xmlns:dc="http://purl.org/dc/elements/1.1/"
   xmlns:cc="http://creativecommons.org/ns#"
   xmlns:rdf="http://www.w3.org/1999/02/22-rdf-syntax-ns#"
   xmlns:svg="http://www.w3.org/2000/svg"
   xmlns="http://www.w3.org/2000/svg"
   xmlns:sodipodi="http://sodipodi.sourceforge.net/DTD/sodipodi-0.dtd"
   xmlns:inkscape="http://www.inkscape.org/namespaces/inkscape"
   inkscape:export-ydpi="300"
   inkscape:export-xdpi="300"
   inkscape:export-filename="../png/009_time_multi-unknown-velocity.png"
   sodipodi:docname="009_time_multi-unkown-velocity.svg"
   inkscape:version="0.92.3 (2405546, 2018-03-11)"
   id="svg8"
   version="1.1"
   viewBox="0 0 140 60"
   height="60mm"
   width="140mm">
  <sodipodi:namedview
     inkscape:window-maximized="1"
     inkscape:window-y="27"
     inkscape:window-x="67"
     inkscape:window-height="1025"
     inkscape:window-width="1853"
     showgrid="false"
     inkscape:current-layer="layer1"
     inkscape:document-units="mm"
     inkscape:cy="25.495095"
     inkscape:cx="302.0517"
     inkscape:zoom="1.4142136"
     inkscape:pageshadow="2"
     inkscape:pageopacity="1"
     borderopacity="1.0"
     bordercolor="#666666"
     pagecolor="#ffffff"
     id="base" />
  <defs
     id="defs2">
    <marker
       inkscape:stockid="Arrow1Mend"
       orient="auto"
       refY="0"
       refX="0"
       id="marker937"
       style="overflow:visible"
       inkscape:isstock="true">
      <path
         inkscape:connector-curvature="0"
         id="path935"
         d="M 0,0 5,-5 -12.5,0 5,5 Z"
         style="fill:#000000;fill-opacity:1;fill-rule:evenodd;stroke:#000000;stroke-width:1.00000003pt;stroke-opacity:1"
         transform="matrix(-0.4,0,0,-0.4,-4,0)" />
    </marker>
    <marker
       inkscape:isstock="true"
       style="overflow:visible"
       id="marker8888"
       refX="0"
       refY="0"
       orient="auto"
       inkscape:stockid="Arrow1Mend"
       inkscape:collect="always">
      <path
         transform="matrix(-0.4,0,0,-0.4,-4,0)"
         style="fill:#000000;fill-opacity:1;fill-rule:evenodd;stroke:#000000;stroke-width:1.00000003pt;stroke-opacity:1"
         d="M 0,0 5,-5 -12.5,0 5,5 Z"
         id="path8886"
         inkscape:connector-curvature="0" />
    </marker>
    <marker
       inkscape:isstock="true"
       style="overflow:visible"
       id="Arrow1Mend"
       refX="0"
       refY="0"
       orient="auto"
       inkscape:stockid="Arrow1Mend">
      <path
         transform="matrix(-0.4,0,0,-0.4,-4,0)"
         style="fill:#000000;fill-opacity:1;fill-rule:evenodd;stroke:#000000;stroke-width:1.00000003pt;stroke-opacity:1"
         d="M 0,0 5,-5 -12.5,0 5,5 Z"
         id="path826"
         inkscape:connector-curvature="0" />
    </marker>
    <marker
       inkscape:isstock="true"
       style="overflow:visible"
       id="Arrow2Mend"
       refX="0"
       refY="0"
       orient="auto"
       inkscape:stockid="Arrow2Mend">
      <path
         inkscape:connector-curvature="0"
         transform="scale(-0.6)"
         d="M 8.7185878,4.0337352 -2.2072895,0.01601326 8.7185884,-4.0017078 c -1.7454984,2.3720609 -1.7354408,5.6174519 -6e-7,8.035443 z"
         style="fill:#000000;fill-opacity:1;fill-rule:evenodd;stroke:#000000;stroke-width:0.625;stroke-linejoin:round;stroke-opacity:1"
         id="path844" />
    </marker>
    <marker
       inkscape:isstock="true"
       style="overflow:visible"
       id="marker5364"
       refX="0"
       refY="0"
       orient="auto"
       inkscape:stockid="Arrow1Lend">
      <path
         transform="matrix(-0.8,0,0,-0.8,-10,0)"
         style="fill:#000000;fill-opacity:1;fill-rule:evenodd;stroke:#000000;stroke-width:1.00000003pt;stroke-opacity:1"
         d="M 0,0 5,-5 -12.5,0 5,5 Z"
         id="path5362"
         inkscape:connector-curvature="0" />
    </marker>
    <marker
       inkscape:stockid="Arrow1Mend"
       orient="auto"
       refY="0"
       refX="0"
       id="marker937-7"
       style="overflow:visible"
       inkscape:isstock="true">
      <path
         inkscape:connector-curvature="0"
         id="path935-0"
         d="M 0,0 5,-5 -12.5,0 5,5 Z"
         style="fill:#000000;fill-opacity:1;fill-rule:evenodd;stroke:#000000;stroke-width:1.00000003pt;stroke-opacity:1"
         transform="matrix(-0.4,0,0,-0.4,-4,0)" />
    </marker>
  </defs>
  <metadata
     id="metadata5">
    <rdf:RDF>
      <cc:Work
         rdf:about="">
        <dc:format>image/svg+xml</dc:format>
        <dc:type
           rdf:resource="http://purl.org/dc/dcmitype/StillImage" />
        <dc:title></dc:title>
      </cc:Work>
    </rdf:RDF>
  </metadata>
  <g
     transform="translate(0,-237)"
     inkscape:label="レイヤー 1"
     inkscape:groupmode="layer"
     id="layer1">
    <path
       style="fill:#000000;fill-opacity:1;stroke:#000000;stroke-width:0.09770183;stroke-miterlimit:4;stroke-dasharray:none;stroke-dashoffset:0;stroke-opacity:1;paint-order:fill markers stroke"
       id="path5229-3-5-6-9"
       sodipodi:type="arc"
       sodipodi:cx="21.237867"
       sodipodi:cy="258.0054"
       sodipodi:rx="1.0205041"
       sodipodi:ry="0.8018086"
       sodipodi:start="6.2608282"
       sodipodi:end="6.2595797"
       sodipodi:open="true"
       d="m 22.258116,257.98748 a 1.0205041,0.8018086 0 0 1 -0.997117,0.81952 1.0205041,0.8018086 0 0 1 -1.043366,-0.78317 1.0205041,0.8018086 0 0 1 0.996465,-0.82002 1.0205041,0.8018086 0 0 1 1.043989,0.78267" />
    <path
       style="fill:none;stroke:#000000;stroke-width:0.55291486;stroke-linecap:butt;stroke-linejoin:miter;stroke-miterlimit:4;stroke-dasharray:none;stroke-opacity:1;marker-end:url(#marker8888)"
       d="M 8.8806891,270.94804 H 131.44051"
       id="path815"
       inkscape:connector-curvature="0"
       sodipodi:nodetypes="cc" />
    <path
       style="fill:none;stroke:#000000;stroke-width:0.40000001;stroke-linecap:butt;stroke-linejoin:miter;stroke-miterlimit:4;stroke-dasharray:none;stroke-opacity:1;marker-end:url(#Arrow1Mend)"
       d="M 11.579896,290.20037 V 247.22369"
       id="path815-7"
       inkscape:connector-curvature="0"
       sodipodi:nodetypes="cc" />
    <g
       style="font-style:normal;font-variant:normal;font-weight:normal;font-stretch:normal;letter-spacing:normal;word-spacing:normal;text-anchor:start;fill:none;fill-opacity:1;fill-rule:evenodd;stroke:#000000;stroke-linecap:butt;stroke-linejoin:miter;stroke-miterlimit:10.43299961;stroke-dasharray:none;stroke-dashoffset:0;stroke-opacity:1"
       ns0:preamble="/home/daishi/.inkscape/textext/my.sty"
       ns0:text="\\begin{eqnarray}\nt \\nonumber\n\\end{eqnarray}"
       word-spacing="normal"
       letter-spacing="normal"
       font-size-adjust="none"
       font-stretch="normal"
       font-weight="normal"
       font-variant="normal"
       font-style="normal"
       stroke-miterlimit="10.433"
       xml:space="preserve"
       transform="matrix(1,0,0,-1,-257.66874,987.75525)"
       id="g9032">
<path
   style="fill:#000000;stroke-width:0"
   inkscape:connector-curvature="0"
   id="path9030"
   d="m 385.58,711.1 h 0.94 c 0.2,0 0.3,0 0.3,0.2 0,0.11 -0.1,0.11 -0.28,0.11 h -0.88 c 0.36,1.41 0.41,1.61 0.41,1.67 0,0.16 -0.12,0.26 -0.29,0.26 -0.03,0 -0.31,-0.01 -0.4,-0.35 l -0.39,-1.58 h -0.94 c -0.19,0 -0.29,0 -0.29,-0.19 0,-0.12 0.07,-0.12 0.28,-0.12 h 0.87 c -0.72,-2.82 -0.76,-2.99 -0.76,-3.17 0,-0.54 0.38,-0.91 0.92,-0.91 1.02,0 1.59,1.45 1.59,1.53 0,0.1 -0.08,0.1 -0.12,0.1 -0.09,0 -0.1,-0.04 -0.15,-0.14 -0.43,-1.04 -0.96,-1.28 -1.3,-1.28 -0.21,0 -0.31,0.13 -0.31,0.46 0,0.24 0.02,0.31 0.06,0.48 z" />
</g>    <path
       style="fill:none;stroke:#000000;stroke-width:0.26458332;stroke-linecap:butt;stroke-linejoin:miter;stroke-miterlimit:4;stroke-dasharray:0.26458332, 0.26458332;stroke-dashoffset:0;stroke-opacity:1"
       d="m 20.907588,271.05347 0.303425,-12.1845"
       id="path9069-6"
       inkscape:connector-curvature="0"
       sodipodi:nodetypes="cc" />
    <path
       style="fill:#000000;fill-opacity:1;stroke:#000000;stroke-width:0.09770183;stroke-miterlimit:4;stroke-dasharray:none;stroke-dashoffset:0;stroke-opacity:1;paint-order:fill markers stroke"
       id="path5229-3-5-6-9-3-0"
       sodipodi:type="arc"
       sodipodi:cx="21.189367"
       sodipodi:cy="270.9068"
       sodipodi:rx="1.0205041"
       sodipodi:ry="0.8018086"
       sodipodi:start="6.2608282"
       sodipodi:end="6.2595797"
       sodipodi:open="true"
       d="m 22.209616,270.88887 a 1.0205041,0.8018086 0 0 1 -0.997117,0.81953 1.0205041,0.8018086 0 0 1 -1.043366,-0.78318 1.0205041,0.8018086 0 0 1 0.996465,-0.82001 1.0205041,0.8018086 0 0 1 1.043989,0.78266" />
    <path
       style="fill:none;fill-opacity:1;stroke:#000000;stroke-width:0.398;stroke-miterlimit:4;stroke-dasharray:none;stroke-dashoffset:0;stroke-opacity:1;paint-order:fill markers stroke"
       id="path5229-3-5-6-9-3"
       sodipodi:type="arc"
       sodipodi:cx="35.986595"
       sodipodi:cy="274.50961"
       sodipodi:rx="1.0205041"
       sodipodi:ry="0.8018086"
       sodipodi:start="6.2608282"
       sodipodi:end="6.2595797"
       sodipodi:open="true"
       d="m 37.006844,274.49169 a 1.0205041,0.8018086 0 0 1 -0.997117,0.81953 1.0205041,0.8018086 0 0 1 -1.043366,-0.78318 1.0205041,0.8018086 0 0 1 0.996465,-0.82002 1.0205041,0.8018086 0 0 1 1.043989,0.78267" />
    <path
       style="fill:none;stroke:#000000;stroke-width:0.26458332;stroke-linecap:butt;stroke-linejoin:miter;stroke-miterlimit:4;stroke-dasharray:0.26458332, 0.26458332;stroke-dashoffset:0;stroke-opacity:1"
       d="m 36.065913,274.50775 -0.126183,-3.0909"
       id="path9069-6-6"
       inkscape:connector-curvature="0"
       sodipodi:nodetypes="cc" />
    <path
       style="fill:#000000;fill-opacity:1;stroke:#000000;stroke-width:0.09770183;stroke-miterlimit:4;stroke-dasharray:none;stroke-dashoffset:0;stroke-opacity:1;paint-order:fill markers stroke"
       id="path5229-3-5-6-9-3-0-7"
       sodipodi:type="arc"
       sodipodi:cx="35.854923"
       sodipodi:cy="270.87354"
       sodipodi:rx="1.0205041"
       sodipodi:ry="0.8018086"
       sodipodi:start="6.2608282"
       sodipodi:end="6.2595797"
       sodipodi:open="true"
       d="m 36.875172,270.85561 a 1.0205041,0.8018086 0 0 1 -0.997117,0.81953 1.0205041,0.8018086 0 0 1 -1.043366,-0.78318 1.0205041,0.8018086 0 0 1 0.996465,-0.82002 1.0205041,0.8018086 0 0 1 1.043989,0.78267" />
    <path
       style="fill:none;fill-opacity:1;stroke:#000000;stroke-width:0.29800001;stroke-miterlimit:4;stroke-dasharray:none;stroke-dashoffset:0;stroke-opacity:1;paint-order:fill markers stroke"
       id="path5229-3-5-6-9-3-6"
       sodipodi:type="arc"
       sodipodi:cx="52.439091"
       sodipodi:cy="262.36575"
       sodipodi:rx="1.0205041"
       sodipodi:ry="0.8018086"
       sodipodi:start="6.2608282"
       sodipodi:end="6.2595797"
       sodipodi:open="true"
       d="m 53.45934,262.34783 a 1.0205041,0.8018086 0 0 1 -0.997117,0.81953 1.0205041,0.8018086 0 0 1 -1.043367,-0.78318 1.0205041,0.8018086 0 0 1 0.996466,-0.82002 1.0205041,0.8018086 0 0 1 1.043989,0.78267" />
    <path
       style="fill:none;stroke:#000000;stroke-width:0.26458332;stroke-linecap:butt;stroke-linejoin:miter;stroke-miterlimit:4;stroke-dasharray:0.26458332, 0.26458332;stroke-dashoffset:0;stroke-opacity:1"
       d="m 52.290629,270.8373 0.186491,-8.25565"
       id="path9069-6-6-2"
       inkscape:connector-curvature="0"
       sodipodi:nodetypes="cc" />
    <path
       style="fill:#000000;fill-opacity:1;stroke:#000000;stroke-width:0.09770183;stroke-miterlimit:4;stroke-dasharray:none;stroke-dashoffset:0;stroke-opacity:1;paint-order:fill markers stroke"
       id="path5229-3-5-6-9-3-0-7-9"
       sodipodi:type="arc"
       sodipodi:cx="52.354607"
       sodipodi:cy="270.91446"
       sodipodi:rx="1.0205041"
       sodipodi:ry="0.8018086"
       sodipodi:start="6.2608282"
       sodipodi:end="6.2595797"
       sodipodi:open="true"
       d="m 53.374856,270.89653 a 1.0205041,0.8018086 0 0 1 -0.997117,0.81953 1.0205041,0.8018086 0 0 1 -1.043367,-0.78318 1.0205041,0.8018086 0 0 1 0.996466,-0.82001 1.0205041,0.8018086 0 0 1 1.043988,0.78266" />
    <path
       style="fill:none;fill-opacity:1;stroke:#000000;stroke-width:0.398;stroke-miterlimit:4;stroke-dasharray:none;stroke-dashoffset:0;stroke-opacity:1;paint-order:fill markers stroke"
       id="path5229-3-5-6-9-3-6-1"
       sodipodi:type="arc"
       sodipodi:cx="88.251556"
       sodipodi:cy="267.68143"
       sodipodi:rx="1.0205041"
       sodipodi:ry="0.8018086"
       sodipodi:start="6.2608282"
       sodipodi:end="6.2595797"
       sodipodi:open="true"
       d="m 89.271805,267.6635 a 1.0205041,0.8018086 0 0 1 -0.997117,0.81953 1.0205041,0.8018086 0 0 1 -1.043366,-0.78318 1.0205041,0.8018086 0 0 1 0.996465,-0.82001 1.0205041,0.8018086 0 0 1 1.043989,0.78266" />
    <path
       style="fill:none;stroke:#000000;stroke-width:0.26458332;stroke-linecap:butt;stroke-linejoin:miter;stroke-miterlimit:4;stroke-dasharray:0.26458332, 0.26458332;stroke-dashoffset:0;stroke-opacity:1"
       d="m 88.220079,270.81264 -0.0204,-2.36664"
       id="path9069-6-6-2-2"
       inkscape:connector-curvature="0"
       sodipodi:nodetypes="cc" />
    <path
       style="fill:#000000;fill-opacity:1;stroke:#000000;stroke-width:0.09770183;stroke-miterlimit:4;stroke-dasharray:none;stroke-dashoffset:0;stroke-opacity:1;paint-order:fill markers stroke"
       id="path5229-3-5-6-9-3-0-7-9-7"
       sodipodi:type="arc"
       sodipodi:cx="88.228798"
       sodipodi:cy="270.91446"
       sodipodi:rx="1.0205041"
       sodipodi:ry="0.8018086"
       sodipodi:start="6.2608282"
       sodipodi:end="6.2595797"
       sodipodi:open="true"
       d="m 89.249047,270.89653 a 1.0205041,0.8018086 0 0 1 -0.997117,0.81953 1.0205041,0.8018086 0 0 1 -1.043367,-0.78318 1.0205041,0.8018086 0 0 1 0.996466,-0.82001 1.0205041,0.8018086 0 0 1 1.043989,0.78266" />
    <path
       style="fill:#000000;fill-opacity:1;stroke:#000000;stroke-width:0.398;stroke-miterlimit:4;stroke-dasharray:none;stroke-dashoffset:0;stroke-opacity:1;paint-order:fill markers stroke"
       id="path5229-3-5-6-9-3-6-1-0"
       sodipodi:type="arc"
       sodipodi:cx="109.31879"
       sodipodi:cy="281.42676"
       sodipodi:rx="1.0205041"
       sodipodi:ry="0.8018086"
       sodipodi:start="6.2608282"
       sodipodi:end="6.2595797"
       sodipodi:open="true"
       d="m 110.33904,281.40883 a 1.0205041,0.8018086 0 0 1 -0.99712,0.81953 1.0205041,0.8018086 0 0 1 -1.04337,-0.78318 1.0205041,0.8018086 0 0 1 0.99647,-0.82001 1.0205041,0.8018086 0 0 1 1.04399,0.78266" />
    <path
       style="fill:none;stroke:#000000;stroke-width:0.26458332;stroke-linecap:butt;stroke-linejoin:miter;stroke-miterlimit:4;stroke-dasharray:0.26458332, 0.26458332;stroke-dashoffset:0;stroke-opacity:1"
       d="m 109.36271,281.68844 -0.0941,-10.92167"
       id="path9069-6-6-2-2-9"
       inkscape:connector-curvature="0"
       sodipodi:nodetypes="cc" />
    <path
       style="fill:#000000;fill-opacity:1;stroke:#000000;stroke-width:0.09770183;stroke-miterlimit:4;stroke-dasharray:none;stroke-dashoffset:0;stroke-opacity:1;paint-order:fill markers stroke"
       id="path5229-3-5-6-9-3-0-7-9-7-3"
       sodipodi:type="arc"
       sodipodi:cx="109.28634"
       sodipodi:cy="270.82092"
       sodipodi:rx="1.0205041"
       sodipodi:ry="0.8018086"
       sodipodi:start="6.2608282"
       sodipodi:end="6.2595797"
       sodipodi:open="true"
       d="m 110.30659,270.803 a 1.0205041,0.8018086 0 0 1 -0.99712,0.81953 1.0205041,0.8018086 0 0 1 -1.04337,-0.78318 1.0205041,0.8018086 0 0 1 0.99647,-0.82002 1.0205041,0.8018086 0 0 1 1.04399,0.78267" />
    <g
       id="g1461"
       transform="matrix(0.58902932,0,0,-0.59418956,-205.15011,696.54099)"
       xml:space="preserve"
       stroke-miterlimit="10.433"
       font-style="normal"
       font-variant="normal"
       font-weight="normal"
       font-stretch="normal"
       font-size-adjust="none"
       letter-spacing="normal"
       word-spacing="normal"
       ns0:text="\\begin{eqnarray}\nt_0  \\nonumber\n\\end{eqnarray}"
       ns0:preamble="/home/daishi/.inkscape/textext/my.sty"
       style="font-style:normal;font-variant:normal;font-weight:normal;font-stretch:normal;letter-spacing:normal;word-spacing:normal;text-anchor:start;fill:none;fill-opacity:1;fill-rule:evenodd;stroke:#000000;stroke-linecap:butt;stroke-linejoin:miter;stroke-miterlimit:10.43299961;stroke-dasharray:none;stroke-dashoffset:0;stroke-opacity:1">
<path
   style="fill:#000000;stroke-width:0"
   inkscape:connector-curvature="0"
   d="m 383.35,711.1 h 0.93 c 0.2,0 0.3,0 0.3,0.2 0,0.11 -0.1,0.11 -0.28,0.11 h -0.87 c 0.36,1.41 0.4,1.61 0.4,1.67 0,0.16 -0.12,0.26 -0.28,0.26 -0.03,0 -0.31,-0.01 -0.4,-0.35 l -0.39,-1.58 h -0.94 c -0.2,0 -0.3,0 -0.3,-0.19 0,-0.12 0.08,-0.12 0.28,-0.12 h 0.88 c -0.72,-2.82 -0.76,-2.99 -0.76,-3.17 0,-0.54 0.38,-0.91 0.92,-0.91 1.02,0 1.58,1.45 1.58,1.53 0,0.1 -0.08,0.1 -0.12,0.1 -0.09,0 -0.1,-0.04 -0.15,-0.14 -0.42,-1.04 -0.95,-1.28 -1.29,-1.28 -0.21,0 -0.31,0.13 -0.31,0.46 0,0.24 0.02,0.31 0.06,0.48 z"
   id="path1457" />
<path
   style="fill:#000000;stroke-width:0"
   inkscape:connector-curvature="0"
   d="m 388.5,707.85 v 0.14 l -0.01,0.14 v 0.13 l -0.01,0.12 -0.01,0.13 -0.02,0.12 -0.02,0.11 -0.02,0.11 -0.02,0.11 -0.03,0.11 -0.04,0.1 -0.04,0.1 -0.04,0.1 -0.05,0.09 -0.05,0.1 -0.03,0.04 -0.03,0.05 c -0.21,0.32 -0.65,0.6 -1.2,0.6 v -0.2 c 0.37,0 0.74,-0.23 0.86,-0.63 0.11,-0.38 0.12,-0.88 0.12,-1.48 0,-0.52 0,-1.03 -0.09,-1.47 -0.14,-0.63 -0.62,-0.78 -0.89,-0.78 v 0 c -0.33,0 -0.75,0.18 -0.89,0.76 -0.1,0.4 -0.1,0.97 -0.1,1.49 0,0.51 0,1.04 0.1,1.42 0.15,0.55 0.6,0.69 0.89,0.69 v 0.2 c -1.63,0 -1.63,-1.9 -1.63,-2.4 0,-0.5 0,-2.36 1.63,-2.36 1.62,0 1.62,1.86 1.62,2.36 z"
   id="path1459" />
</g>    <g
       style="font-style:normal;font-variant:normal;font-weight:normal;font-stretch:normal;letter-spacing:normal;word-spacing:normal;text-anchor:start;fill:none;fill-opacity:1;fill-rule:evenodd;stroke:#000000;stroke-linecap:butt;stroke-linejoin:miter;stroke-miterlimit:10.43299961;stroke-dasharray:none;stroke-dashoffset:0;stroke-opacity:1"
       ns0:preamble="/home/daishi/.inkscape/textext/my.sty"
       ns0:text="\\begin{eqnarray}\nt_1  \\nonumber\n\\end{eqnarray}"
       word-spacing="normal"
       letter-spacing="normal"
       font-size-adjust="none"
       font-stretch="normal"
       font-weight="normal"
       font-variant="normal"
       font-style="normal"
       stroke-miterlimit="10.433"
       xml:space="preserve"
       transform="matrix(0.62529083,0,0,-0.63076875,-204.6876,713.74896)"
       id="g1590">
<path
   style="fill:#000000;stroke-width:0"
   inkscape:connector-curvature="0"
   id="path1586"
   d="m 383.35,711.1 h 0.93 c 0.2,0 0.3,0 0.3,0.2 0,0.11 -0.1,0.11 -0.28,0.11 h -0.87 c 0.36,1.41 0.4,1.61 0.4,1.67 0,0.16 -0.12,0.26 -0.28,0.26 -0.03,0 -0.31,-0.01 -0.4,-0.35 l -0.39,-1.58 h -0.94 c -0.2,0 -0.3,0 -0.3,-0.19 0,-0.12 0.08,-0.12 0.28,-0.12 h 0.88 c -0.72,-2.82 -0.76,-2.99 -0.76,-3.17 0,-0.54 0.38,-0.91 0.92,-0.91 1.02,0 1.58,1.45 1.58,1.53 0,0.1 -0.08,0.1 -0.12,0.1 -0.09,0 -0.1,-0.04 -0.15,-0.14 -0.42,-1.04 -0.95,-1.28 -1.29,-1.28 -0.21,0 -0.31,0.13 -0.31,0.46 0,0.24 0.02,0.31 0.06,0.48 z" />
<path
   style="fill:#000000;stroke-width:0"
   inkscape:connector-curvature="0"
   id="path1588"
   d="m 387.23,710.05 v 0.01 0.01 0.01 0.01 0 0.01 0.01 0.01 0 0.01 0.01 0 0.01 0 0.01 0 l -0.01,0.01 v 0 0.01 0.01 0.01 h -0.01 v 0.01 l -0.01,0.01 v 0 l -0.01,0.01 v 0 h -0.01 l -0.01,0.01 v 0 h -0.01 -0.01 -0.01 v 0 h -0.01 v 0.01 h -0.01 -0.01 v 0 h -0.01 -0.01 v 0 h -0.01 -0.01 -0.01 v 0 h -0.01 -0.01 -0.01 -0.01 c -0.45,-0.44 -1.08,-0.45 -1.37,-0.45 v -0.25 c 0.17,0 0.63,0 1.02,0.2 v -3.55 c 0,-0.23 0,-0.32 -0.7,-0.32 h -0.27 v -0.25 c 0.13,0.01 0.99,0.03 1.25,0.03 0.21,0 1.09,-0.02 1.25,-0.03 v 0.25 h -0.27 c -0.7,0 -0.7,0.09 -0.7,0.32 z" />
</g>    <g
       id="g1725"
       transform="matrix(0.60470755,0,0,-0.61000514,-180.25583,708.07831)"
       xml:space="preserve"
       stroke-miterlimit="10.433"
       font-style="normal"
       font-variant="normal"
       font-weight="normal"
       font-stretch="normal"
       font-size-adjust="none"
       letter-spacing="normal"
       word-spacing="normal"
       ns0:text="\\begin{eqnarray}\nt_2  \\nonumber\n\\end{eqnarray}"
       ns0:preamble="/home/daishi/.inkscape/textext/my.sty"
       style="font-style:normal;font-variant:normal;font-weight:normal;font-stretch:normal;letter-spacing:normal;word-spacing:normal;text-anchor:start;fill:#000000;fill-opacity:1;fill-rule:evenodd;stroke:#000000;stroke-linecap:butt;stroke-linejoin:miter;stroke-miterlimit:10.43299961;stroke-dasharray:none;stroke-dashoffset:0;stroke-opacity:1">
<path
   style="fill:#000000;fill-opacity:1;stroke-width:0"
   inkscape:connector-curvature="0"
   d="m 383.35,711.1 h 0.93 c 0.2,0 0.3,0 0.3,0.2 0,0.11 -0.1,0.11 -0.28,0.11 h -0.87 c 0.36,1.41 0.4,1.61 0.4,1.67 0,0.16 -0.12,0.26 -0.28,0.26 -0.03,0 -0.31,-0.01 -0.4,-0.35 l -0.39,-1.58 h -0.94 c -0.2,0 -0.3,0 -0.3,-0.19 0,-0.12 0.08,-0.12 0.28,-0.12 h 0.88 c -0.72,-2.82 -0.76,-2.99 -0.76,-3.17 0,-0.54 0.38,-0.91 0.92,-0.91 1.02,0 1.58,1.45 1.58,1.53 0,0.1 -0.08,0.1 -0.12,0.1 -0.09,0 -0.1,-0.04 -0.15,-0.14 -0.42,-1.04 -0.95,-1.28 -1.29,-1.28 -0.21,0 -0.31,0.13 -0.31,0.46 0,0.24 0.02,0.31 0.06,0.48 z"
   id="path1721" />
<path
   style="fill:#000000;fill-opacity:1;stroke-width:0"
   inkscape:connector-curvature="0"
   d="m 388.42,706.9 h -0.24 c -0.02,-0.16 -0.09,-0.57 -0.18,-0.64 -0.06,-0.04 -0.59,-0.04 -0.69,-0.04 h -1.29 c 0.74,0.65 0.98,0.84 1.4,1.17 0.52,0.41 1,0.84 1,1.5 0,0.84 -0.74,1.36 -1.64,1.36 -0.86,0 -1.45,-0.61 -1.45,-1.25 0,-0.35 0.3,-0.39 0.37,-0.39 0.17,0 0.37,0.12 0.37,0.37 0,0.13 -0.05,0.37 -0.41,0.37 0.22,0.49 0.69,0.65 1.02,0.65 0.7,0 1.06,-0.54 1.06,-1.11 0,-0.6 -0.43,-1.08 -0.66,-1.33 l -1.68,-1.66 c -0.07,-0.06 -0.07,-0.07 -0.07,-0.27 h 2.88 z"
   id="path1723" />
</g>    <flowRoot
       transform="matrix(0.26458333,0,0,0.26458333,0,237)"
       style="font-style:normal;font-weight:normal;font-size:26.66666603px;line-height:1.25;font-family:sans-serif;letter-spacing:0px;word-spacing:0px;fill:#000000;fill-opacity:1;stroke:none"
       id="flowRoot2079"
       xml:space="preserve"><flowRegion
         id="flowRegion2081"><rect
           y="84.643188"
           x="264.45795"
           height="26.870058"
           width="92.630989"
           id="rect2083" /></flowRegion><flowPara
         id="flowPara2085">///</flowPara></flowRoot>    <flowRoot
       transform="matrix(0.26458333,0,0,0.26458333,1.4552076,235.54479)"
       style="font-style:normal;font-weight:normal;font-size:26.66666603px;line-height:1.25;font-family:sans-serif;letter-spacing:0px;word-spacing:0px;fill:#000000;fill-opacity:1;stroke:none"
       id="flowRoot2091"
       xml:space="preserve"><flowRegion
         id="flowRegion2093"><rect
           y="69.905975"
           x="245.55489"
           height="42.365677"
           width="57.94511"
           id="rect2095" /></flowRegion><flowPara
         id="flowPara2099">…</flowPara></flowRoot>    <flowRoot
       transform="matrix(0.26458333,0,0,0.26458333,2.0140036,264.56924)"
       style="font-style:normal;font-weight:normal;font-size:26.66666603px;line-height:1.25;font-family:sans-serif;letter-spacing:0px;word-spacing:0px;fill:#000000;fill-opacity:1;stroke:none"
       id="flowRoot2091-3"
       xml:space="preserve"><flowRegion
         id="flowRegion2093-7"><rect
           y="69.905975"
           x="245.55489"
           height="42.365677"
           width="57.94511"
           id="rect2095-5" /></flowRegion><flowPara
         id="flowPara2099-9">…</flowPara></flowRoot>    <g
       style="font-style:normal;font-variant:normal;font-weight:normal;font-stretch:normal;letter-spacing:normal;word-spacing:normal;text-anchor:start;fill:none;fill-opacity:1;fill-rule:evenodd;stroke:#000000;stroke-linecap:butt;stroke-linejoin:miter;stroke-miterlimit:10.43299961;stroke-dasharray:none;stroke-dashoffset:0;stroke-opacity:1"
       ns0:preamble="/home/daishi/.inkscape/textext/my.sty"
       ns0:text="\\begin{eqnarray}\n\\dot{x}_0  \\nonumber\n\\end{eqnarray}"
       word-spacing="normal"
       letter-spacing="normal"
       font-size-adjust="none"
       font-stretch="normal"
       font-weight="normal"
       font-variant="normal"
       font-style="normal"
       stroke-miterlimit="10.433"
       xml:space="preserve"
       transform="matrix(0.84313636,0,0,-0.85052273,-302.77765,856.47067)"
       id="g1212">
<path
   style="fill:#000000;stroke-width:0"
   inkscape:connector-curvature="0"
   id="path1206"
   d="m 383.9,713.24 v 0.03 0.02 l -0.01,0.03 v 0.02 l -0.01,0.03 -0.01,0.02 v 0.03 l -0.01,0.02 -0.01,0.02 -0.01,0.02 -0.02,0.03 -0.01,0.02 -0.02,0.02 -0.01,0.02 -0.02,0.02 -0.01,0.02 -0.02,0.02 -0.02,0.01 -0.02,0.02 -0.02,0.01 -0.02,0.02 -0.03,0.01 -0.02,0.02 -0.02,0.01 -0.03,0.01 -0.02,0.01 h -0.03 l -0.02,0.01 h -0.03 l -0.03,0.01 h -0.02 -0.03 c -0.34,0 -0.54,-0.28 -0.54,-0.53 0,-0.26 0.23,-0.52 0.53,-0.52 0.34,0 0.54,0.28 0.54,0.52 z" />
<path
   style="fill:#000000;stroke-width:0"
   inkscape:connector-curvature="0"
   id="path1208"
   d="m 383.57,710.12 0.01,0.03 0.01,0.03 0.01,0.03 v 0.04 l 0.02,0.04 0.01,0.04 0.01,0.04 0.01,0.05 0.02,0.04 0.02,0.05 0.02,0.05 0.02,0.05 0.02,0.05 0.02,0.05 0.03,0.05 0.03,0.05 0.03,0.05 0.03,0.04 0.03,0.05 0.04,0.04 0.04,0.05 0.03,0.04 0.05,0.04 0.04,0.03 0.05,0.03 0.05,0.03 0.02,0.01 0.03,0.02 0.02,0.01 0.03,0.01 0.03,0.01 h 0.03 l 0.03,0.01 0.03,0.01 h 0.03 0.03 l 0.03,0.01 h 0.03 c 0.05,0 0.29,0 0.5,-0.13 -0.28,-0.05 -0.48,-0.3 -0.48,-0.54 0,-0.16 0.11,-0.35 0.38,-0.35 0.22,0 0.54,0.18 0.54,0.58 0,0.52 -0.59,0.66 -0.93,0.66 -0.58,0 -0.93,-0.53 -1.05,-0.76 -0.25,0.66 -0.78,0.76 -1.07,0.76 -1.04,0 -1.61,-1.29 -1.61,-1.53 0,-0.1 0.1,-0.1 0.12,-0.1 0.08,0 0.11,0.02 0.13,0.11 0.34,1.05 1,1.3 1.34,1.3 0.19,0 0.53,-0.09 0.53,-0.67 0,-0.31 -0.16,-0.97 -0.53,-2.36 -0.16,-0.62 -0.51,-1.04 -0.95,-1.04 -0.06,0 -0.29,0 -0.5,0.13 0.25,0.05 0.47,0.26 0.47,0.54 0,0.27 -0.22,0.35 -0.37,0.35 -0.3,0 -0.55,-0.26 -0.55,-0.58 0,-0.46 0.5,-0.65 0.94,-0.65 0.66,0 1.02,0.69 1.05,0.75 0.12,-0.37 0.47,-0.75 1.07,-0.75 1.03,0 1.6,1.28 1.6,1.53 0,0.1 -0.09,0.1 -0.12,0.1 -0.09,0 -0.11,-0.05 -0.13,-0.11 -0.33,-1.07 -1.01,-1.31 -1.33,-1.31 -0.38,0 -0.54,0.32 -0.54,0.66 0,0.22 0.05,0.44 0.16,0.87 z" />
<path
   style="fill:#000000;stroke-width:0"
   inkscape:connector-curvature="0"
   id="path1210"
   d="m 389.55,707.85 -0.01,0.14 v 0.14 l -0.01,0.13 v 0.12 l -0.02,0.13 -0.01,0.12 -0.02,0.11 -0.02,0.11 -0.03,0.11 -0.03,0.11 -0.03,0.1 -0.04,0.1 -0.04,0.1 -0.05,0.09 -0.05,0.1 -0.03,0.04 -0.03,0.05 c -0.21,0.32 -0.65,0.6 -1.21,0.6 v -0.2 c 0.38,0 0.74,-0.23 0.87,-0.63 0.11,-0.38 0.12,-0.88 0.12,-1.48 0,-0.52 0,-1.03 -0.09,-1.47 -0.14,-0.63 -0.62,-0.78 -0.9,-0.78 v 0 c -0.32,0 -0.75,0.18 -0.88,0.76 -0.1,0.4 -0.1,0.97 -0.1,1.49 0,0.51 0,1.04 0.1,1.42 0.15,0.55 0.6,0.69 0.88,0.69 v 0.2 c -1.62,0 -1.62,-1.9 -1.62,-2.4 0,-0.5 0,-2.36 1.62,-2.36 1.63,0 1.63,1.86 1.63,2.36 z" />
</g>    <g
       id="g1697"
       transform="matrix(0.84313637,0,0,-0.85052273,-288.14153,885.10339)"
       xml:space="preserve"
       stroke-miterlimit="10.433"
       font-style="normal"
       font-variant="normal"
       font-weight="normal"
       font-stretch="normal"
       font-size-adjust="none"
       letter-spacing="normal"
       word-spacing="normal"
       ns0:text="\\begin{eqnarray}\n\\dot{x}_1  \\nonumber\n\\end{eqnarray}"
       ns0:preamble="/home/daishi/.inkscape/textext/my.sty"
       style="font-style:normal;font-variant:normal;font-weight:normal;font-stretch:normal;letter-spacing:normal;word-spacing:normal;text-anchor:start;fill:none;fill-opacity:1;fill-rule:evenodd;stroke:#000000;stroke-linecap:butt;stroke-linejoin:miter;stroke-miterlimit:10.43299961;stroke-dasharray:none;stroke-dashoffset:0;stroke-opacity:1">
<path
   style="fill:#000000;stroke-width:0"
   inkscape:connector-curvature="0"
   d="m 383.9,713.24 v 0.03 0.02 l -0.01,0.03 v 0.02 l -0.01,0.03 -0.01,0.02 v 0.03 l -0.01,0.02 -0.01,0.02 -0.01,0.02 -0.02,0.03 -0.01,0.02 -0.02,0.02 -0.01,0.02 -0.02,0.02 -0.01,0.02 -0.02,0.02 -0.02,0.01 -0.02,0.02 -0.02,0.01 -0.02,0.02 -0.03,0.01 -0.02,0.02 -0.02,0.01 -0.03,0.01 -0.02,0.01 h -0.03 l -0.02,0.01 h -0.03 l -0.03,0.01 h -0.02 -0.03 c -0.34,0 -0.54,-0.28 -0.54,-0.53 0,-0.26 0.23,-0.52 0.53,-0.52 0.34,0 0.54,0.28 0.54,0.52 z"
   id="path1691" />
<path
   style="fill:#000000;stroke-width:0"
   inkscape:connector-curvature="0"
   d="m 383.57,710.12 0.01,0.03 0.01,0.03 0.01,0.03 v 0.04 l 0.02,0.04 0.01,0.04 0.01,0.04 0.01,0.05 0.02,0.04 0.02,0.05 0.02,0.05 0.02,0.05 0.02,0.05 0.02,0.05 0.03,0.05 0.03,0.05 0.03,0.05 0.03,0.04 0.03,0.05 0.04,0.04 0.04,0.05 0.03,0.04 0.05,0.04 0.04,0.03 0.05,0.03 0.05,0.03 0.02,0.01 0.03,0.02 0.02,0.01 0.03,0.01 0.03,0.01 h 0.03 l 0.03,0.01 0.03,0.01 h 0.03 0.03 l 0.03,0.01 h 0.03 c 0.05,0 0.29,0 0.5,-0.13 -0.28,-0.05 -0.48,-0.3 -0.48,-0.54 0,-0.16 0.11,-0.35 0.38,-0.35 0.22,0 0.54,0.18 0.54,0.58 0,0.52 -0.59,0.66 -0.93,0.66 -0.58,0 -0.93,-0.53 -1.05,-0.76 -0.25,0.66 -0.78,0.76 -1.07,0.76 -1.04,0 -1.61,-1.29 -1.61,-1.53 0,-0.1 0.1,-0.1 0.12,-0.1 0.08,0 0.11,0.02 0.13,0.11 0.34,1.05 1,1.3 1.34,1.3 0.19,0 0.53,-0.09 0.53,-0.67 0,-0.31 -0.16,-0.97 -0.53,-2.36 -0.16,-0.62 -0.51,-1.04 -0.95,-1.04 -0.06,0 -0.29,0 -0.5,0.13 0.25,0.05 0.47,0.26 0.47,0.54 0,0.27 -0.22,0.35 -0.37,0.35 -0.3,0 -0.55,-0.26 -0.55,-0.58 0,-0.46 0.5,-0.65 0.94,-0.65 0.66,0 1.02,0.69 1.05,0.75 0.12,-0.37 0.47,-0.75 1.07,-0.75 1.03,0 1.6,1.28 1.6,1.53 0,0.1 -0.09,0.1 -0.12,0.1 -0.09,0 -0.11,-0.05 -0.13,-0.11 -0.33,-1.07 -1.01,-1.31 -1.33,-1.31 -0.38,0 -0.54,0.32 -0.54,0.66 0,0.22 0.05,0.44 0.16,0.87 z"
   id="path1693" />
<path
   style="fill:#000000;stroke-width:0"
   inkscape:connector-curvature="0"
   d="m 388.28,710.05 v 0.01 0.01 0.01 0.01 0 0.01 0.01 0.01 0 0.01 0.01 0 0.01 0 l -0.01,0.01 v 0 0.01 0 0.01 0.01 l -0.01,0.01 v 0 0.01 l -0.01,0.01 v 0 l -0.01,0.01 v 0 h -0.01 l -0.01,0.01 h -0.01 -0.01 v 0 h -0.01 -0.01 v 0 l -0.01,0.01 v 0 h -0.01 v 0 h -0.01 -0.01 -0.01 v 0 h -0.01 -0.01 -0.01 v 0 h -0.01 -0.01 -0.01 c -0.45,-0.44 -1.08,-0.45 -1.37,-0.45 v -0.25 c 0.17,0 0.63,0 1.01,0.2 v -3.55 c 0,-0.23 0,-0.32 -0.7,-0.32 h -0.26 v -0.25 c 0.12,0.01 0.98,0.03 1.24,0.03 0.22,0 1.1,-0.02 1.25,-0.03 v 0.25 h -0.26 c -0.7,0 -0.7,0.09 -0.7,0.32 z"
   id="path1695" />
</g>    <flowRoot
       style="font-style:normal;font-variant:normal;font-weight:normal;font-stretch:normal;font-size:26.66666603px;line-height:1.25;font-family:'Century Schoolbook L';-inkscape-font-specification:'Century Schoolbook L';letter-spacing:0px;word-spacing:0px;fill:#000000;fill-opacity:1;stroke:none"
       id="flowRoot1801"
       xml:space="preserve"><flowRegion
         style="font-style:normal;font-variant:normal;font-weight:normal;font-stretch:normal;font-family:'Century Schoolbook L';-inkscape-font-specification:'Century Schoolbook L'"
         id="flowRegion1803"><rect
           style="font-style:normal;font-variant:normal;font-weight:normal;font-stretch:normal;font-family:'Century Schoolbook L';-inkscape-font-specification:'Century Schoolbook L'"
           y="215.45795"
           x="97.580734"
           height="70.003571"
           width="91.216774"
           id="rect1805" /></flowRegion><flowPara
         id="flowPara1807" /></flowRoot>    <text
       id="text1811"
       y="284.1441"
       x="41.192272"
       style="font-style:normal;font-weight:normal;font-size:7.05555534px;line-height:1.25;font-family:sans-serif;letter-spacing:0px;word-spacing:0px;fill:#000000;fill-opacity:1;stroke:none;stroke-width:0.26458332"
       xml:space="preserve"><tspan
         style="font-style:normal;font-variant:normal;font-weight:normal;font-stretch:normal;font-family:'Century Schoolbook L';-inkscape-font-specification:'Century Schoolbook L';stroke-width:0.26458332"
         y="284.1441"
         x="41.192272"
         id="tspan1809"
         sodipodi:role="line">?</tspan></text>
    <g
       style="font-style:normal;font-variant:normal;font-weight:normal;font-stretch:normal;letter-spacing:normal;word-spacing:normal;text-anchor:start;fill:none;fill-opacity:1;fill-rule:evenodd;stroke:#000000;stroke-linecap:butt;stroke-linejoin:miter;stroke-miterlimit:10.43299961;stroke-dasharray:none;stroke-dashoffset:0;stroke-opacity:1"
       ns0:preamble="/home/daishi/.inkscape/textext/my.sty"
       ns0:text="\\begin{eqnarray}\n\\dot{x}_2  \\nonumber\n\\end{eqnarray}"
       word-spacing="normal"
       letter-spacing="normal"
       font-size-adjust="none"
       font-stretch="normal"
       font-weight="normal"
       font-variant="normal"
       font-style="normal"
       stroke-miterlimit="10.433"
       xml:space="preserve"
       transform="matrix(0.84313636,0,0,-0.85052273,-273.2127,859.77167)"
       id="g1908">
<path
   id="path1902"
   d="m 383.9,713.24 v 0.03 0.02 l -0.01,0.03 v 0.02 l -0.01,0.03 -0.01,0.02 v 0.03 l -0.01,0.02 -0.01,0.02 -0.01,0.02 -0.02,0.03 -0.01,0.02 -0.02,0.02 -0.01,0.02 -0.02,0.02 -0.01,0.02 -0.02,0.02 -0.02,0.01 -0.02,0.02 -0.02,0.01 -0.02,0.02 -0.03,0.01 -0.02,0.02 -0.02,0.01 -0.03,0.01 -0.02,0.01 h -0.03 l -0.02,0.01 h -0.03 l -0.03,0.01 h -0.02 -0.03 c -0.34,0 -0.54,-0.28 -0.54,-0.53 0,-0.26 0.23,-0.52 0.53,-0.52 0.34,0 0.54,0.28 0.54,0.52 z"
   inkscape:connector-curvature="0"
   style="fill:#000000;stroke-width:0" />
<path
   id="path1904"
   d="m 383.57,710.12 0.01,0.03 0.01,0.03 0.01,0.03 v 0.04 l 0.02,0.04 0.01,0.04 0.01,0.04 0.01,0.05 0.02,0.04 0.02,0.05 0.02,0.05 0.02,0.05 0.02,0.05 0.02,0.05 0.03,0.05 0.03,0.05 0.03,0.05 0.03,0.04 0.03,0.05 0.04,0.04 0.04,0.05 0.03,0.04 0.05,0.04 0.04,0.03 0.05,0.03 0.05,0.03 0.02,0.01 0.03,0.02 0.02,0.01 0.03,0.01 0.03,0.01 h 0.03 l 0.03,0.01 0.03,0.01 h 0.03 0.03 l 0.03,0.01 h 0.03 c 0.05,0 0.29,0 0.5,-0.13 -0.28,-0.05 -0.48,-0.3 -0.48,-0.54 0,-0.16 0.11,-0.35 0.38,-0.35 0.22,0 0.54,0.18 0.54,0.58 0,0.52 -0.59,0.66 -0.93,0.66 -0.58,0 -0.93,-0.53 -1.05,-0.76 -0.25,0.66 -0.78,0.76 -1.07,0.76 -1.04,0 -1.61,-1.29 -1.61,-1.53 0,-0.1 0.1,-0.1 0.12,-0.1 0.08,0 0.11,0.02 0.13,0.11 0.34,1.05 1,1.3 1.34,1.3 0.19,0 0.53,-0.09 0.53,-0.67 0,-0.31 -0.16,-0.97 -0.53,-2.36 -0.16,-0.62 -0.51,-1.04 -0.95,-1.04 -0.06,0 -0.29,0 -0.5,0.13 0.25,0.05 0.47,0.26 0.47,0.54 0,0.27 -0.22,0.35 -0.37,0.35 -0.3,0 -0.55,-0.26 -0.55,-0.58 0,-0.46 0.5,-0.65 0.94,-0.65 0.66,0 1.02,0.69 1.05,0.75 0.12,-0.37 0.47,-0.75 1.07,-0.75 1.03,0 1.6,1.28 1.6,1.53 0,0.1 -0.09,0.1 -0.12,0.1 -0.09,0 -0.11,-0.05 -0.13,-0.11 -0.33,-1.07 -1.01,-1.31 -1.33,-1.31 -0.38,0 -0.54,0.32 -0.54,0.66 0,0.22 0.05,0.44 0.16,0.87 z"
   inkscape:connector-curvature="0"
   style="fill:#000000;stroke-width:0" />
<path
   id="path1906"
   d="m 389.47,706.9 h -0.24 c -0.02,-0.16 -0.09,-0.57 -0.18,-0.64 -0.06,-0.04 -0.6,-0.04 -0.69,-0.04 h -1.29 c 0.73,0.65 0.98,0.84 1.4,1.17 0.52,0.41 1,0.84 1,1.5 0,0.84 -0.74,1.36 -1.64,1.36 -0.87,0 -1.45,-0.61 -1.45,-1.25 0,-0.35 0.3,-0.39 0.37,-0.39 0.17,0 0.37,0.12 0.37,0.37 0,0.13 -0.05,0.37 -0.41,0.37 0.21,0.49 0.69,0.65 1.02,0.65 0.7,0 1.06,-0.54 1.06,-1.11 0,-0.6 -0.43,-1.08 -0.66,-1.33 l -1.68,-1.66 c -0.07,-0.06 -0.07,-0.07 -0.07,-0.27 h 2.88 z"
   inkscape:connector-curvature="0"
   style="fill:#000000;stroke-width:0" />
</g>    <text
       id="text1811-6"
       y="259.06232"
       x="56.934811"
       style="font-style:normal;font-weight:normal;font-size:7.05555534px;line-height:1.25;font-family:sans-serif;letter-spacing:0px;word-spacing:0px;fill:#000000;fill-opacity:1;stroke:none;stroke-width:0.26458332"
       xml:space="preserve"><tspan
         style="font-style:normal;font-variant:normal;font-weight:normal;font-stretch:normal;font-family:'Century Schoolbook L';-inkscape-font-specification:'Century Schoolbook L';stroke-width:0.26458332"
         y="259.06232"
         x="56.934811"
         id="tspan1809-2"
         sodipodi:role="line">?</tspan></text>
    <text
       id="text1811-6-9"
       y="263.82486"
       x="97.812927"
       style="font-style:normal;font-weight:normal;font-size:7.05555534px;line-height:1.25;font-family:sans-serif;letter-spacing:0px;word-spacing:0px;fill:#000000;fill-opacity:1;stroke:none;stroke-width:0.26458332"
       xml:space="preserve"><tspan
         style="font-style:normal;font-variant:normal;font-weight:normal;font-stretch:normal;font-family:'Century Schoolbook L';-inkscape-font-specification:'Century Schoolbook L';stroke-width:0.26458332"
         y="263.82486"
         x="97.812927"
         id="tspan1809-2-1"
         sodipodi:role="line">?</tspan></text>
    <g
       id="content"
       transform="matrix(1,0,0,-1,-379.12702,958.3029)"
       xml:space="preserve"
       stroke-miterlimit="10.433"
       font-style="normal"
       font-variant="normal"
       font-weight="normal"
       font-stretch="normal"
       font-size-adjust="none"
       letter-spacing="normal"
       word-spacing="normal"
       ns0:text="\\begin{eqnarray}\n\\dot{x} \\nonumber\n\\end{eqnarray}"
       ns0:preamble="/home/daishi/.inkscape/textext/my.sty"
       style="font-style:normal;font-variant:normal;font-weight:normal;font-stretch:normal;letter-spacing:normal;word-spacing:normal;text-anchor:start;fill:none;fill-opacity:1;fill-rule:evenodd;stroke:#000000;stroke-linecap:butt;stroke-linejoin:miter;stroke-miterlimit:10.43299961;stroke-dasharray:none;stroke-dashoffset:0;stroke-opacity:1">
<path
   style="fill:#000000;stroke-width:0"
   inkscape:connector-curvature="0"
   d="m 386.13,713.24 v 0.03 0.02 0.03 l -0.01,0.02 v 0.03 l -0.01,0.02 -0.01,0.03 -0.01,0.02 -0.01,0.02 -0.01,0.02 -0.01,0.03 -0.02,0.02 -0.01,0.02 -0.02,0.02 -0.01,0.02 -0.02,0.02 -0.02,0.02 -0.02,0.01 -0.02,0.02 -0.02,0.01 -0.02,0.02 -0.02,0.01 -0.02,0.02 -0.03,0.01 -0.02,0.01 -0.03,0.01 h -0.02 l -0.03,0.01 h -0.02 l -0.03,0.01 h -0.03 -0.03 c -0.33,0 -0.53,-0.28 -0.53,-0.53 0,-0.26 0.23,-0.52 0.52,-0.52 0.34,0 0.54,0.28 0.54,0.52 z"
   id="path1013" />
<path
   style="fill:#000000;stroke-width:0"
   inkscape:connector-curvature="0"
   d="m 385.81,710.12 0.01,0.03 v 0.03 l 0.01,0.03 0.01,0.04 0.01,0.04 0.01,0.04 0.02,0.04 0.01,0.05 0.02,0.04 0.01,0.05 0.02,0.05 0.02,0.05 0.03,0.05 0.02,0.05 0.03,0.05 0.02,0.05 0.03,0.05 0.03,0.04 0.04,0.05 0.03,0.04 0.04,0.05 0.04,0.04 0.04,0.04 0.05,0.03 0.04,0.03 0.05,0.03 0.03,0.01 0.02,0.02 0.03,0.01 0.03,0.01 0.02,0.01 h 0.03 l 0.03,0.01 0.03,0.01 h 0.03 0.03 l 0.03,0.01 h 0.04 c 0.05,0 0.28,0 0.49,-0.13 -0.27,-0.05 -0.47,-0.3 -0.47,-0.54 0,-0.16 0.1,-0.35 0.38,-0.35 0.21,0 0.53,0.18 0.53,0.58 0,0.52 -0.59,0.66 -0.92,0.66 -0.58,0 -0.93,-0.53 -1.05,-0.76 -0.25,0.66 -0.79,0.76 -1.08,0.76 -1.04,0 -1.6,-1.29 -1.6,-1.53 0,-0.1 0.1,-0.1 0.12,-0.1 0.08,0 0.11,0.02 0.13,0.11 0.34,1.05 0.99,1.3 1.33,1.3 0.19,0 0.54,-0.09 0.54,-0.67 0,-0.31 -0.17,-0.97 -0.54,-2.36 -0.16,-0.62 -0.51,-1.04 -0.95,-1.04 -0.06,0 -0.29,0 -0.49,0.13 0.24,0.05 0.46,0.26 0.46,0.54 0,0.27 -0.22,0.35 -0.36,0.35 -0.3,0 -0.55,-0.26 -0.55,-0.58 0,-0.46 0.5,-0.65 0.93,-0.65 0.66,0 1.02,0.69 1.05,0.75 0.12,-0.37 0.48,-0.75 1.08,-0.75 1.03,0 1.59,1.28 1.59,1.53 0,0.1 -0.09,0.1 -0.12,0.1 -0.09,0 -0.1,-0.05 -0.13,-0.11 -0.32,-1.07 -1,-1.31 -1.32,-1.31 -0.39,0 -0.55,0.32 -0.55,0.66 0,0.22 0.06,0.44 0.17,0.87 z"
   id="path1015" />
</g>    <g
       style="font-style:normal;font-variant:normal;font-weight:normal;font-stretch:normal;letter-spacing:normal;word-spacing:normal;text-anchor:start;fill:none;fill-opacity:1;fill-rule:evenodd;stroke:#000000;stroke-linecap:butt;stroke-linejoin:miter;stroke-miterlimit:10.43299961;stroke-dasharray:none;stroke-dashoffset:0;stroke-opacity:1"
       ns0:preamble="/home/daishi/.inkscape/textext/my.sty"
       ns0:text="\\begin{eqnarray}\nt_{f-1}  \\nonumber\n\\end{eqnarray}"
       word-spacing="normal"
       letter-spacing="normal"
       font-size-adjust="none"
       font-stretch="normal"
       font-weight="normal"
       font-variant="normal"
       font-style="normal"
       stroke-miterlimit="10.433"
       xml:space="preserve"
       transform="matrix(0.57703247,0,0,-0.58208762,-133.49009,688.83544)"
       id="g1206">
<path
   id="path1198"
   d="m 377.9,711.1 h 0.94 c 0.2,0 0.3,0 0.3,0.2 0,0.11 -0.1,0.11 -0.28,0.11 h -0.88 c 0.36,1.41 0.41,1.61 0.41,1.67 0,0.16 -0.12,0.26 -0.29,0.26 -0.03,0 -0.31,-0.01 -0.4,-0.35 l -0.39,-1.58 h -0.94 c -0.2,0 -0.3,0 -0.3,-0.19 0,-0.12 0.08,-0.12 0.28,-0.12 h 0.88 c -0.72,-2.82 -0.76,-2.99 -0.76,-3.17 0,-0.54 0.38,-0.91 0.92,-0.91 1.02,0 1.59,1.45 1.59,1.53 0,0.1 -0.08,0.1 -0.12,0.1 -0.09,0 -0.1,-0.04 -0.15,-0.14 -0.43,-1.04 -0.96,-1.28 -1.3,-1.28 -0.21,0 -0.31,0.13 -0.31,0.46 0,0.24 0.02,0.31 0.06,0.48 z"
   inkscape:connector-curvature="0"
   style="fill:#000000;stroke-width:0" />
<path
   id="path1200"
   d="m 382.29,708.38 h 0.68 c 0.14,0 0.23,0 0.23,0.15 0,0.1 -0.09,0.1 -0.21,0.1 h -0.65 c 0.16,0.88 0.21,1.2 0.27,1.4 0.03,0.16 0.19,0.3 0.36,0.3 0,0 0.19,0 0.33,-0.08 -0.29,-0.09 -0.31,-0.34 -0.31,-0.38 0,-0.16 0.12,-0.26 0.28,-0.26 0.19,0 0.4,0.16 0.4,0.42 0,0.32 -0.35,0.5 -0.7,0.5 -0.31,0 -0.65,-0.18 -0.84,-0.52 -0.14,-0.26 -0.2,-0.58 -0.34,-1.38 h -0.56 c -0.14,0 -0.23,0 -0.23,-0.16 0,-0.09 0.09,-0.09 0.22,-0.09 h 0.52 c -0.01,-0.04 -0.45,-2.55 -0.62,-3.29 -0.03,-0.15 -0.15,-0.68 -0.49,-0.68 -0.01,0 -0.17,0 -0.31,0.08 0.29,0.09 0.31,0.34 0.31,0.38 0,0.16 -0.12,0.26 -0.28,0.26 -0.19,0 -0.4,-0.16 -0.4,-0.42 0,-0.32 0.33,-0.5 0.68,-0.5 0.45,0 0.76,0.46 0.84,0.61 0.25,0.47 0.41,1.33 0.43,1.41 z"
   inkscape:connector-curvature="0"
   style="fill:#000000;stroke-width:0" />
<path
   id="path1202"
   d="m 389.31,707.2 h 0.01 0.01 0.01 0.02 0.02 0.01 0.01 l 0.01,0.01 h 0.02 0.01 0.01 0.01 l 0.01,0.01 h 0.01 0.01 l 0.01,0.01 h 0.01 l 0.01,0.01 h 0.01 l 0.01,0.01 0.01,0.01 h 0.01 v 0.01 0 l 0.01,0.01 v 0 0.01 0 l 0.01,0.01 v 0 0.01 0 l 0.01,0.01 v 0.01 0 0.01 0.01 0 0.01 0.01 c 0,0.17 -0.16,0.17 -0.28,0.17 h -4.17 c -0.11,0 -0.28,0 -0.28,-0.16 0,-0.18 0.16,-0.18 0.28,-0.18 z"
   inkscape:connector-curvature="0"
   style="fill:#000000;stroke-width:0" />
<path
   id="path1204"
   d="m 392.68,710.05 v 0.01 0.01 0.01 0.01 0 0.01 0.01 0.01 0 0.01 0.01 0 l -0.01,0.01 v 0 0.01 0 0.01 0 0.01 0.01 l -0.01,0.01 v 0 0.01 l -0.01,0.01 v 0 l -0.01,0.01 h -0.01 v 0 l -0.01,0.01 h -0.01 -0.01 -0.01 v 0 h -0.01 v 0 l -0.01,0.01 v 0 h -0.01 -0.01 v 0 h -0.01 -0.01 v 0 h -0.01 -0.01 -0.01 v 0 h -0.01 -0.01 -0.01 c -0.45,-0.44 -1.08,-0.45 -1.37,-0.45 v -0.25 c 0.17,0 0.63,0 1.01,0.2 v -3.55 c 0,-0.23 0,-0.32 -0.7,-0.32 h -0.26 v -0.25 c 0.12,0.01 0.98,0.03 1.24,0.03 0.22,0 1.1,-0.02 1.25,-0.03 v 0.25 h -0.26 c -0.7,0 -0.7,0.09 -0.7,0.32 z"
   inkscape:connector-curvature="0"
   style="fill:#000000;stroke-width:0" />
</g>    <g
       id="g1400"
       transform="matrix(0.84313636,0,0,-0.85052273,-236.19666,864.33265)"
       xml:space="preserve"
       stroke-miterlimit="10.433"
       font-style="normal"
       font-variant="normal"
       font-weight="normal"
       font-stretch="normal"
       font-size-adjust="none"
       letter-spacing="normal"
       word-spacing="normal"
       ns0:text="\\begin{eqnarray}\n\\dot{x}_{f-1}  \\nonumber\n\\end{eqnarray}"
       ns0:preamble="/home/daishi/.inkscape/textext/my.sty"
       style="font-style:normal;font-variant:normal;font-weight:normal;font-stretch:normal;letter-spacing:normal;word-spacing:normal;text-anchor:start;fill:none;fill-opacity:1;fill-rule:evenodd;stroke:#000000;stroke-linecap:butt;stroke-linejoin:miter;stroke-miterlimit:10.43299961;stroke-dasharray:none;stroke-dashoffset:0;stroke-opacity:1">
<path
   d="m 378.45,713.24 v 0.03 0.02 0.03 l -0.01,0.02 v 0.03 l -0.01,0.02 -0.01,0.03 -0.01,0.02 -0.01,0.02 -0.01,0.02 -0.01,0.03 -0.02,0.02 -0.01,0.02 -0.02,0.02 -0.01,0.02 -0.02,0.02 -0.02,0.02 -0.02,0.01 -0.02,0.02 -0.02,0.01 -0.02,0.02 -0.02,0.01 -0.02,0.02 -0.03,0.01 -0.02,0.01 -0.03,0.01 h -0.02 l -0.03,0.01 h -0.02 l -0.03,0.01 h -0.03 -0.03 c -0.34,0 -0.53,-0.28 -0.53,-0.53 0,-0.26 0.22,-0.52 0.52,-0.52 0.34,0 0.54,0.28 0.54,0.52 z"
   id="path1390"
   inkscape:connector-curvature="0"
   style="fill:#000000;stroke-width:0" />
<path
   d="m 378.13,710.12 v 0.03 l 0.01,0.03 0.01,0.03 0.01,0.04 0.01,0.04 0.01,0.04 0.01,0.04 0.02,0.05 0.01,0.04 0.02,0.05 0.02,0.05 0.02,0.05 0.02,0.05 0.03,0.05 0.02,0.05 0.03,0.05 0.03,0.05 0.03,0.04 0.04,0.05 0.03,0.04 0.04,0.05 0.04,0.04 0.04,0.04 0.04,0.03 0.05,0.03 0.05,0.03 0.03,0.01 0.02,0.02 0.03,0.01 0.02,0.01 0.03,0.01 h 0.03 l 0.03,0.01 0.03,0.01 h 0.03 0.03 l 0.03,0.01 h 0.03 c 0.06,0 0.29,0 0.5,-0.13 -0.28,-0.05 -0.47,-0.3 -0.47,-0.54 0,-0.16 0.1,-0.35 0.37,-0.35 0.22,0 0.54,0.18 0.54,0.58 0,0.52 -0.59,0.66 -0.93,0.66 -0.57,0 -0.92,-0.53 -1.04,-0.76 -0.25,0.66 -0.79,0.76 -1.08,0.76 -1.04,0 -1.61,-1.29 -1.61,-1.53 0,-0.1 0.1,-0.1 0.13,-0.1 0.08,0 0.1,0.02 0.12,0.11 0.34,1.05 1,1.3 1.34,1.3 0.19,0 0.54,-0.09 0.54,-0.67 0,-0.31 -0.17,-0.97 -0.54,-2.36 -0.16,-0.62 -0.51,-1.04 -0.95,-1.04 -0.06,0 -0.29,0 -0.49,0.13 0.24,0.05 0.46,0.26 0.46,0.54 0,0.27 -0.22,0.35 -0.36,0.35 -0.31,0 -0.55,-0.26 -0.55,-0.58 0,-0.46 0.49,-0.65 0.93,-0.65 0.66,0 1.02,0.69 1.05,0.75 0.12,-0.37 0.48,-0.75 1.08,-0.75 1.02,0 1.59,1.28 1.59,1.53 0,0.1 -0.09,0.1 -0.12,0.1 -0.09,0 -0.11,-0.05 -0.13,-0.11 -0.32,-1.07 -1,-1.31 -1.32,-1.31 -0.39,0 -0.55,0.32 -0.55,0.66 0,0.22 0.06,0.44 0.17,0.87 z"
   id="path1392"
   inkscape:connector-curvature="0"
   style="fill:#000000;stroke-width:0" />
<path
   d="m 383.34,708.38 h 0.68 c 0.14,0 0.23,0 0.23,0.15 0,0.1 -0.09,0.1 -0.21,0.1 h -0.65 c 0.16,0.88 0.21,1.2 0.27,1.4 0.03,0.16 0.19,0.3 0.36,0.3 0,0 0.19,0 0.32,-0.08 -0.28,-0.09 -0.3,-0.34 -0.3,-0.38 0,-0.16 0.11,-0.26 0.28,-0.26 0.18,0 0.39,0.16 0.39,0.42 0,0.32 -0.34,0.5 -0.69,0.5 -0.31,0 -0.66,-0.18 -0.84,-0.52 -0.14,-0.26 -0.2,-0.58 -0.35,-1.38 h -0.55 c -0.14,0 -0.23,0 -0.23,-0.16 0,-0.09 0.09,-0.09 0.22,-0.09 h 0.51 c 0,-0.04 -0.44,-2.55 -0.61,-3.29 -0.04,-0.15 -0.15,-0.68 -0.49,-0.68 -0.01,0 -0.17,0 -0.31,0.08 0.29,0.09 0.31,0.34 0.31,0.38 0,0.16 -0.12,0.26 -0.28,0.26 -0.19,0 -0.4,-0.16 -0.4,-0.42 0,-0.32 0.33,-0.5 0.68,-0.5 0.45,0 0.75,0.46 0.84,0.61 0.25,0.47 0.41,1.33 0.43,1.41 z"
   id="path1394"
   inkscape:connector-curvature="0"
   style="fill:#000000;stroke-width:0" />
<path
   d="m 390.36,707.2 h 0.01 0.01 0.01 0.01 0.03 0.01 0.01 l 0.01,0.01 h 0.01 0.02 0.01 0.01 l 0.01,0.01 h 0.01 0.01 l 0.01,0.01 h 0.01 l 0.01,0.01 h 0.01 l 0.01,0.01 0.01,0.01 v 0 l 0.01,0.01 v 0 0.01 h 0.01 v 0.01 0 l 0.01,0.01 v 0 0.01 0 0.01 0.01 h 0.01 v 0.01 0.01 0 0.01 0.01 c 0,0.17 -0.16,0.17 -0.28,0.17 h -4.17 c -0.11,0 -0.28,0 -0.28,-0.16 0,-0.18 0.16,-0.18 0.28,-0.18 z"
   id="path1396"
   inkscape:connector-curvature="0"
   style="fill:#000000;stroke-width:0" />
<path
   d="m 393.73,710.05 v 0.01 0.01 0.01 0.01 0 0.01 0.01 0.01 h -0.01 v 0.01 0.01 0 0.01 0 0.01 0 0.01 0 0.01 l -0.01,0.01 v 0.01 0 l -0.01,0.01 v 0.01 h -0.01 v 0.01 h -0.01 v 0 l -0.01,0.01 h -0.01 -0.01 -0.01 v 0 h -0.01 v 0 l -0.01,0.01 h -0.01 v 0 h -0.01 v 0 h -0.01 -0.01 -0.01 v 0 h -0.01 -0.01 -0.01 -0.01 v 0 h -0.01 c -0.45,-0.44 -1.09,-0.45 -1.37,-0.45 v -0.25 c 0.16,0 0.62,0 1.01,0.2 v -3.55 c 0,-0.23 0,-0.32 -0.7,-0.32 h -0.26 v -0.25 c 0.12,0.01 0.98,0.03 1.24,0.03 0.22,0 1.1,-0.02 1.25,-0.03 v 0.25 h -0.27 c -0.69,0 -0.69,0.09 -0.69,0.32 z"
   id="path1398"
   inkscape:connector-curvature="0"
   style="fill:#000000;stroke-width:0" />
</g>    <g
       style="font-style:normal;font-variant:normal;font-weight:normal;font-stretch:normal;letter-spacing:normal;word-spacing:normal;text-anchor:start;fill:none;fill-opacity:1;fill-rule:evenodd;stroke:#000000;stroke-linecap:butt;stroke-linejoin:miter;stroke-miterlimit:10.43299961;stroke-dasharray:none;stroke-dashoffset:0;stroke-opacity:1"
       ns0:preamble="/home/daishi/.inkscape/textext/my.sty"
       ns0:text="\\begin{eqnarray}\nt_{f}  \\nonumber\n\\end{eqnarray}"
       word-spacing="normal"
       letter-spacing="normal"
       font-size-adjust="none"
       font-stretch="normal"
       font-weight="normal"
       font-variant="normal"
       font-style="normal"
       stroke-miterlimit="10.433"
       xml:space="preserve"
       transform="matrix(0.65603255,0,0,-0.66177978,-142.37087,735.69238)"
       id="g1593">
<path
   id="path1589"
   d="m 383,711.1 h 0.94 c 0.2,0 0.29,0 0.29,0.2 0,0.11 -0.09,0.11 -0.27,0.11 h -0.88 c 0.36,1.41 0.41,1.61 0.41,1.67 0,0.16 -0.12,0.26 -0.29,0.26 -0.03,0 -0.31,-0.01 -0.4,-0.35 l -0.39,-1.58 h -0.94 c -0.2,0 -0.3,0 -0.3,-0.19 0,-0.12 0.08,-0.12 0.28,-0.12 h 0.88 c -0.72,-2.82 -0.76,-2.99 -0.76,-3.17 0,-0.54 0.38,-0.91 0.92,-0.91 1.02,0 1.59,1.45 1.59,1.53 0,0.1 -0.09,0.1 -0.12,0.1 -0.09,0 -0.1,-0.04 -0.15,-0.14 -0.43,-1.04 -0.96,-1.28 -1.3,-1.28 -0.21,0 -0.31,0.13 -0.31,0.46 0,0.24 0.02,0.31 0.06,0.48 z"
   inkscape:connector-curvature="0"
   style="fill:#000000;stroke-width:0" />
<path
   id="path1591"
   d="m 387.39,708.38 h 0.68 c 0.14,0 0.23,0 0.23,0.15 0,0.1 -0.09,0.1 -0.21,0.1 h -0.65 c 0.16,0.88 0.21,1.2 0.27,1.4 0.03,0.16 0.19,0.3 0.36,0.3 0,0 0.19,0 0.32,-0.08 -0.28,-0.09 -0.3,-0.34 -0.3,-0.38 0,-0.16 0.11,-0.26 0.28,-0.26 0.18,0 0.39,0.16 0.39,0.42 0,0.32 -0.34,0.5 -0.69,0.5 -0.31,0 -0.65,-0.18 -0.84,-0.52 -0.14,-0.26 -0.2,-0.58 -0.35,-1.38 h -0.55 c -0.14,0 -0.23,0 -0.23,-0.16 0,-0.09 0.09,-0.09 0.22,-0.09 h 0.51 c 0,-0.04 -0.44,-2.55 -0.61,-3.29 -0.04,-0.15 -0.15,-0.68 -0.49,-0.68 -0.01,0 -0.18,0 -0.31,0.08 0.29,0.09 0.31,0.34 0.31,0.38 0,0.16 -0.12,0.26 -0.28,0.26 -0.19,0 -0.4,-0.16 -0.4,-0.42 0,-0.32 0.33,-0.5 0.68,-0.5 0.45,0 0.75,0.46 0.84,0.61 0.25,0.47 0.41,1.33 0.42,1.41 z"
   inkscape:connector-curvature="0"
   style="fill:#000000;stroke-width:0" />
</g>    <g
       style="font-style:normal;font-variant:normal;font-weight:normal;font-stretch:normal;letter-spacing:normal;word-spacing:normal;text-anchor:start;fill:none;fill-opacity:1;fill-rule:evenodd;stroke:#000000;stroke-linecap:butt;stroke-linejoin:miter;stroke-miterlimit:10.43299961;stroke-dasharray:none;stroke-dashoffset:0;stroke-opacity:1"
       ns0:preamble="/home/daishi/.inkscape/textext/my.sty"
       ns0:text="\\begin{eqnarray}\n\\dot{x}_{f}  \\nonumber\n\\end{eqnarray}"
       word-spacing="normal"
       letter-spacing="normal"
       font-size-adjust="none"
       font-stretch="normal"
       font-weight="normal"
       font-variant="normal"
       font-style="normal"
       stroke-miterlimit="10.433"
       xml:space="preserve"
       transform="matrix(0.84313636,0,0,-0.85052273,-214.34988,890.97632)"
       id="g1981">
<path
   style="fill:#000000;stroke-width:0"
   inkscape:connector-curvature="0"
   id="path1975"
   d="m 383.55,713.24 v 0.03 0.02 0.03 l -0.01,0.02 -0.01,0.03 v 0.02 l -0.01,0.03 -0.01,0.02 -0.01,0.02 -0.01,0.02 -0.01,0.03 -0.02,0.02 -0.01,0.02 -0.02,0.02 -0.01,0.02 -0.02,0.02 -0.02,0.02 -0.02,0.01 -0.02,0.02 -0.02,0.01 -0.02,0.02 -0.02,0.01 -0.03,0.02 -0.02,0.01 -0.02,0.01 -0.03,0.01 h -0.02 l -0.03,0.01 h -0.03 l -0.02,0.01 h -0.03 -0.03 c -0.34,0 -0.54,-0.28 -0.54,-0.53 0,-0.26 0.23,-0.52 0.53,-0.52 0.34,0 0.54,0.28 0.54,0.52 z" />
<path
   style="fill:#000000;stroke-width:0"
   inkscape:connector-curvature="0"
   id="path1977"
   d="m 383.23,710.12 v 0.03 l 0.01,0.03 0.01,0.03 0.01,0.04 0.01,0.04 0.01,0.04 0.01,0.04 0.02,0.05 0.01,0.04 0.02,0.05 0.02,0.05 0.02,0.05 0.02,0.05 0.03,0.05 0.02,0.05 0.03,0.05 0.03,0.05 0.03,0.04 0.04,0.05 0.03,0.04 0.04,0.05 0.04,0.04 0.04,0.04 0.04,0.03 0.05,0.03 0.05,0.03 0.02,0.01 0.03,0.02 0.03,0.01 0.02,0.01 0.03,0.01 h 0.03 l 0.03,0.01 0.03,0.01 h 0.03 0.03 l 0.03,0.01 h 0.03 c 0.05,0 0.29,0 0.5,-0.13 -0.28,-0.05 -0.48,-0.3 -0.48,-0.54 0,-0.16 0.11,-0.35 0.38,-0.35 0.22,0 0.54,0.18 0.54,0.58 0,0.52 -0.59,0.66 -0.93,0.66 -0.57,0 -0.92,-0.53 -1.04,-0.76 -0.25,0.66 -0.79,0.76 -1.08,0.76 -1.04,0 -1.61,-1.29 -1.61,-1.53 0,-0.1 0.1,-0.1 0.12,-0.1 0.08,0 0.11,0.02 0.13,0.11 0.34,1.05 1,1.3 1.34,1.3 0.19,0 0.54,-0.09 0.54,-0.67 0,-0.31 -0.17,-0.97 -0.54,-2.36 -0.16,-0.62 -0.51,-1.04 -0.95,-1.04 -0.06,0 -0.29,0 -0.5,0.13 0.25,0.05 0.47,0.26 0.47,0.54 0,0.27 -0.22,0.35 -0.37,0.35 -0.3,0 -0.55,-0.26 -0.55,-0.58 0,-0.46 0.5,-0.65 0.94,-0.65 0.66,0 1.02,0.69 1.05,0.75 0.12,-0.37 0.48,-0.75 1.08,-0.75 1.02,0 1.59,1.28 1.59,1.53 0,0.1 -0.09,0.1 -0.12,0.1 -0.09,0 -0.11,-0.05 -0.13,-0.11 -0.33,-1.07 -1,-1.31 -1.32,-1.31 -0.39,0 -0.55,0.32 -0.55,0.66 0,0.22 0.06,0.44 0.17,0.87 z" />
<path
   style="fill:#000000;stroke-width:0"
   inkscape:connector-curvature="0"
   id="path1979"
   d="m 388.44,708.38 h 0.68 c 0.14,0 0.23,0 0.23,0.15 0,0.1 -0.09,0.1 -0.21,0.1 h -0.66 c 0.16,0.88 0.22,1.2 0.28,1.4 0.03,0.16 0.19,0.3 0.35,0.3 0.01,0 0.2,0 0.33,-0.08 -0.28,-0.09 -0.3,-0.34 -0.3,-0.38 0,-0.16 0.11,-0.26 0.28,-0.26 0.18,0 0.39,0.16 0.39,0.42 0,0.32 -0.34,0.5 -0.7,0.5 -0.3,0 -0.65,-0.18 -0.84,-0.52 -0.13,-0.26 -0.19,-0.58 -0.34,-1.38 h -0.55 c -0.14,0 -0.23,0 -0.23,-0.16 0,-0.09 0.09,-0.09 0.22,-0.09 h 0.51 c 0,-0.04 -0.44,-2.55 -0.61,-3.29 -0.04,-0.15 -0.16,-0.68 -0.49,-0.68 -0.01,0 -0.18,0 -0.31,0.08 0.29,0.09 0.31,0.34 0.31,0.38 0,0.16 -0.12,0.26 -0.28,0.26 -0.19,0 -0.4,-0.16 -0.4,-0.42 0,-0.32 0.33,-0.5 0.68,-0.5 0.45,0 0.75,0.46 0.84,0.61 0.25,0.47 0.41,1.33 0.42,1.41 z" />
</g>    <path
       style="fill:none;stroke:#000000;stroke-width:0.40000001;stroke-linecap:butt;stroke-linejoin:miter;stroke-miterlimit:4;stroke-dasharray:none;stroke-opacity:1;marker-end:url(#marker937)"
       d="m 21.211013,258.12062 11.017369,0.004"
       id="path927"
       inkscape:connector-curvature="0"
       sodipodi:nodetypes="cc" />
    <path
       style="fill:none;stroke:#000000;stroke-width:0.40000001;stroke-linecap:butt;stroke-linejoin:miter;stroke-miterlimit:4;stroke-dasharray:none;stroke-opacity:1;marker-end:url(#marker937-7)"
       d="m 109.36271,281.68844 11.01737,0.004"
       id="path927-1"
       inkscape:connector-curvature="0"
       sodipodi:nodetypes="cc" />
    <g
       id="g1930"
       transform="matrix(0.57547309,0,0,-0.58051458,-194.19016,674.19862)"
       xml:space="preserve"
       stroke-miterlimit="10.433"
       font-style="normal"
       font-variant="normal"
       font-weight="normal"
       font-stretch="normal"
       font-size-adjust="none"
       letter-spacing="normal"
       word-spacing="normal"
       ns0:text="\\begin{eqnarray}\n(\\ddot{x}_0)  \\nonumber\n\\end{eqnarray}"
       ns0:preamble="/home/daishi/.inkscape/textext/my.sty"
       style="font-style:normal;font-variant:normal;font-weight:normal;font-stretch:normal;letter-spacing:normal;word-spacing:normal;text-anchor:start;fill:none;fill-opacity:1;fill-rule:evenodd;stroke:#000000;stroke-linecap:butt;stroke-linejoin:miter;stroke-miterlimit:10.43299961;stroke-dasharray:none;stroke-dashoffset:0;stroke-opacity:1">
<path
   style="fill:#000000;stroke-width:0"
   inkscape:connector-curvature="0"
   d="m 379.67,704.74 v 0.01 0 0 0.01 0 0 0.01 h -0.01 v 0 0.01 0 0.01 h -0.01 v 0.01 h -0.01 v 0.01 l -0.01,0.01 v 0 0.01 h -0.01 v 0.01 h -0.01 v 0 0.01 h -0.01 v 0.01 h -0.01 v 0.01 h -0.01 v 0.01 h -0.01 v 0.01 l -0.01,0.01 v 0 l -0.01,0.01 -0.01,0.01 v 0 l -0.01,0.01 -0.01,0.01 v 0 l -0.01,0.01 -0.01,0.01 c -1.25,1.25 -1.57,3.13 -1.57,4.65 0,1.73 0.38,3.46 1.61,4.7 0.13,0.12 0.13,0.14 0.13,0.17 0,0.07 -0.04,0.1 -0.1,0.1 -0.1,0 -1,-0.68 -1.59,-1.94 -0.5,-1.09 -0.62,-2.2 -0.62,-3.03 0,-0.78 0.11,-1.98 0.65,-3.1 0.6,-1.22 1.46,-1.87 1.56,-1.87 0.06,0 0.1,0.03 0.1,0.1 z"
   id="path1918" />
<path
   style="fill:#000000;stroke-width:0"
   inkscape:connector-curvature="0"
   d="m 382.9,713.27 v 0.03 0.02 0.02 0.02 l -0.01,0.03 -0.01,0.02 v 0.02 l -0.01,0.02 -0.01,0.02 -0.01,0.02 -0.01,0.03 -0.01,0.02 -0.02,0.02 -0.01,0.01 -0.02,0.02 -0.01,0.02 -0.02,0.02 -0.02,0.02 -0.01,0.01 -0.02,0.02 -0.02,0.01 -0.03,0.01 -0.02,0.02 -0.02,0.01 -0.02,0.01 -0.03,0.01 h -0.02 l -0.03,0.01 h -0.02 l -0.03,0.01 h -0.03 -0.02 c -0.28,0 -0.5,-0.22 -0.5,-0.5 0,-0.27 0.22,-0.49 0.5,-0.49 0.3,0 0.49,0.26 0.49,0.49 z"
   id="path1920" />
<path
   style="fill:#000000;stroke-width:0"
   inkscape:connector-curvature="0"
   d="m 384.83,713.27 v 0.03 0.03 l -0.01,0.02 v 0.03 l -0.01,0.02 v 0.02 l -0.01,0.03 -0.01,0.02 -0.01,0.02 -0.01,0.02 -0.01,0.02 -0.01,0.02 -0.02,0.02 -0.01,0.02 -0.02,0.02 -0.01,0.02 -0.02,0.01 -0.02,0.02 -0.02,0.01 -0.02,0.02 -0.02,0.01 -0.02,0.01 -0.02,0.01 -0.02,0.01 -0.03,0.01 -0.02,0.01 -0.02,0.01 h -0.03 l -0.02,0.01 h -0.03 -0.02 -0.03 c -0.3,0 -0.5,-0.26 -0.5,-0.5 0,-0.23 0.2,-0.49 0.5,-0.49 0.28,0 0.5,0.22 0.5,0.49 z"
   id="path1922" />
<path
   style="fill:#000000;stroke-width:0"
   inkscape:connector-curvature="0"
   d="m 383.57,710.12 0.01,0.03 0.01,0.03 0.01,0.03 v 0.04 l 0.02,0.04 0.01,0.04 0.01,0.04 0.01,0.05 0.02,0.04 0.02,0.05 0.02,0.05 0.02,0.05 0.02,0.05 0.02,0.05 0.03,0.05 0.03,0.05 0.03,0.05 0.03,0.04 0.03,0.05 0.04,0.04 0.04,0.05 0.03,0.04 0.05,0.04 0.04,0.03 0.05,0.03 0.05,0.03 0.02,0.01 0.03,0.02 0.02,0.01 0.03,0.01 0.03,0.01 h 0.03 l 0.03,0.01 0.03,0.01 h 0.03 0.03 l 0.03,0.01 h 0.03 c 0.05,0 0.29,0 0.5,-0.13 -0.28,-0.05 -0.48,-0.3 -0.48,-0.54 0,-0.16 0.11,-0.35 0.38,-0.35 0.22,0 0.54,0.18 0.54,0.58 0,0.52 -0.59,0.66 -0.93,0.66 -0.58,0 -0.93,-0.53 -1.05,-0.76 -0.25,0.66 -0.78,0.76 -1.07,0.76 -1.04,0 -1.61,-1.29 -1.61,-1.53 0,-0.1 0.1,-0.1 0.12,-0.1 0.08,0 0.11,0.02 0.13,0.11 0.34,1.05 1,1.3 1.34,1.3 0.19,0 0.53,-0.09 0.53,-0.67 0,-0.31 -0.16,-0.97 -0.53,-2.36 -0.16,-0.62 -0.51,-1.04 -0.95,-1.04 -0.06,0 -0.29,0 -0.5,0.13 0.25,0.05 0.47,0.26 0.47,0.54 0,0.27 -0.22,0.35 -0.37,0.35 -0.3,0 -0.55,-0.26 -0.55,-0.58 0,-0.46 0.5,-0.65 0.94,-0.65 0.66,0 1.02,0.69 1.05,0.75 0.12,-0.37 0.47,-0.75 1.07,-0.75 1.03,0 1.6,1.28 1.6,1.53 0,0.1 -0.09,0.1 -0.12,0.1 -0.09,0 -0.11,-0.05 -0.13,-0.11 -0.33,-1.07 -1.01,-1.31 -1.33,-1.31 -0.38,0 -0.54,0.32 -0.54,0.66 0,0.22 0.05,0.44 0.16,0.87 z"
   id="path1924" />
<path
   style="fill:#000000;stroke-width:0"
   inkscape:connector-curvature="0"
   d="m 389.55,707.85 -0.01,0.14 v 0.14 l -0.01,0.13 v 0.12 l -0.02,0.13 -0.01,0.12 -0.02,0.11 -0.02,0.11 -0.03,0.11 -0.03,0.11 -0.03,0.1 -0.04,0.1 -0.04,0.1 -0.05,0.09 -0.05,0.1 -0.03,0.04 -0.03,0.05 c -0.21,0.32 -0.65,0.6 -1.21,0.6 v -0.2 c 0.38,0 0.74,-0.23 0.87,-0.63 0.11,-0.38 0.12,-0.88 0.12,-1.48 0,-0.52 0,-1.03 -0.09,-1.47 -0.14,-0.63 -0.62,-0.78 -0.9,-0.78 v 0 c -0.32,0 -0.75,0.18 -0.88,0.76 -0.1,0.4 -0.1,0.97 -0.1,1.49 0,0.51 0,1.04 0.1,1.42 0.15,0.55 0.6,0.69 0.88,0.69 v 0.2 c -1.62,0 -1.62,-1.9 -1.62,-2.4 0,-0.5 0,-2.36 1.62,-2.36 1.63,0 1.63,1.86 1.63,2.36 z"
   id="path1926" />
<path
   style="fill:#000000;stroke-width:0"
   inkscape:connector-curvature="0"
   d="m 393.29,709.61 v 0.07 0.08 0.08 l -0.01,0.08 v 0.17 l -0.02,0.17 -0.01,0.18 -0.02,0.19 -0.03,0.2 -0.03,0.2 -0.04,0.2 -0.05,0.21 -0.05,0.21 -0.07,0.21 -0.06,0.21 -0.08,0.21 -0.05,0.11 -0.04,0.11 -0.05,0.1 -0.05,0.11 c -0.6,1.22 -1.46,1.87 -1.55,1.87 -0.06,0 -0.1,-0.04 -0.1,-0.1 0,-0.03 0,-0.05 0.19,-0.23 0.97,-0.99 1.54,-2.57 1.54,-4.64 0,-1.7 -0.37,-3.45 -1.6,-4.7 -0.13,-0.12 -0.13,-0.14 -0.13,-0.17 0,-0.06 0.04,-0.1 0.1,-0.1 0.09,0 0.99,0.68 1.58,1.94 0.51,1.09 0.63,2.19 0.63,3.03 z"
   id="path1928" />
</g>    <g
       style="font-style:normal;font-variant:normal;font-weight:normal;font-stretch:normal;letter-spacing:normal;word-spacing:normal;text-anchor:start;fill:none;fill-opacity:1;fill-rule:evenodd;stroke:#000000;stroke-linecap:butt;stroke-linejoin:miter;stroke-miterlimit:10.43299961;stroke-dasharray:none;stroke-dashoffset:0;stroke-opacity:1"
       ns0:preamble="/home/daishi/.inkscape/textext/my.sty"
       ns0:text="\\begin{eqnarray}\n(\\ddot{x}_f)  \\nonumber\n\\end{eqnarray}"
       word-spacing="normal"
       letter-spacing="normal"
       font-size-adjust="none"
       font-stretch="normal"
       font-weight="normal"
       font-variant="normal"
       font-style="normal"
       stroke-miterlimit="10.433"
       xml:space="preserve"
       transform="matrix(0.57547309,0,0,-0.58051459,-100.94523,697.83258)"
       id="g2165">
<path
   id="path2153"
   d="m 379.32,704.74 v 0.01 0 0 0.01 0 0 0.01 0 0 l -0.01,0.01 v 0 0.01 h -0.01 v 0.01 0 l -0.01,0.01 v 0.01 h -0.01 v 0.01 h -0.01 v 0.01 0 h -0.01 v 0.01 h -0.01 v 0.01 0 l -0.01,0.01 v 0 l -0.01,0.01 v 0 l -0.01,0.01 -0.01,0.01 v 0 l -0.01,0.01 v 0.01 h -0.01 l -0.01,0.01 -0.01,0.01 v 0 l -0.01,0.01 -0.01,0.01 c -1.24,1.25 -1.56,3.13 -1.56,4.65 0,1.73 0.38,3.46 1.6,4.7 0.13,0.12 0.13,0.14 0.13,0.17 0,0.07 -0.04,0.1 -0.1,0.1 -0.1,0 -0.99,-0.68 -1.58,-1.94 -0.51,-1.09 -0.63,-2.2 -0.63,-3.03 0,-0.78 0.11,-1.98 0.66,-3.1 0.6,-1.22 1.45,-1.87 1.55,-1.87 0.06,0 0.1,0.03 0.1,0.1 z"
   inkscape:connector-curvature="0"
   style="fill:#000000;stroke-width:0" />
<path
   id="path2155"
   d="m 382.56,713.27 v 0.03 l -0.01,0.02 v 0.02 0.02 l -0.01,0.03 v 0.02 l -0.01,0.02 -0.01,0.02 -0.01,0.02 -0.01,0.02 -0.01,0.03 -0.01,0.02 -0.01,0.02 -0.02,0.01 -0.01,0.02 -0.02,0.02 -0.02,0.02 -0.01,0.02 -0.02,0.01 -0.02,0.02 -0.02,0.01 -0.02,0.01 -0.02,0.02 -0.03,0.01 -0.02,0.01 -0.02,0.01 h -0.03 l -0.02,0.01 h -0.03 l -0.03,0.01 h -0.02 -0.03 c -0.28,0 -0.5,-0.22 -0.5,-0.5 0,-0.27 0.22,-0.49 0.5,-0.49 0.3,0 0.5,0.26 0.5,0.49 z"
   inkscape:connector-curvature="0"
   style="fill:#000000;stroke-width:0" />
<path
   id="path2157"
   d="m 384.48,713.27 v 0.03 0.03 0.02 l -0.01,0.03 v 0.02 l -0.01,0.02 -0.01,0.03 -0.01,0.02 -0.01,0.02 -0.01,0.02 -0.01,0.02 -0.01,0.02 -0.02,0.02 -0.01,0.02 -0.02,0.02 -0.01,0.02 -0.02,0.01 -0.02,0.02 -0.02,0.01 -0.02,0.02 -0.02,0.01 -0.02,0.01 -0.02,0.01 -0.02,0.01 -0.02,0.01 -0.03,0.01 -0.02,0.01 h -0.03 l -0.02,0.01 h -0.03 -0.02 -0.03 c -0.3,0 -0.5,-0.26 -0.5,-0.5 0,-0.23 0.2,-0.49 0.5,-0.49 0.28,0 0.5,0.22 0.5,0.49 z"
   inkscape:connector-curvature="0"
   style="fill:#000000;stroke-width:0" />
<path
   id="path2159"
   d="m 383.23,710.12 v 0.03 l 0.01,0.03 0.01,0.03 0.01,0.04 0.01,0.04 0.01,0.04 0.01,0.04 0.02,0.05 0.01,0.04 0.02,0.05 0.02,0.05 0.02,0.05 0.02,0.05 0.03,0.05 0.02,0.05 0.03,0.05 0.03,0.05 0.03,0.04 0.04,0.05 0.03,0.04 0.04,0.05 0.04,0.04 0.04,0.04 0.04,0.03 0.05,0.03 0.05,0.03 0.02,0.01 0.03,0.02 0.03,0.01 0.02,0.01 0.03,0.01 h 0.03 l 0.03,0.01 0.03,0.01 h 0.03 0.03 l 0.03,0.01 h 0.03 c 0.05,0 0.29,0 0.5,-0.13 -0.28,-0.05 -0.48,-0.3 -0.48,-0.54 0,-0.16 0.11,-0.35 0.38,-0.35 0.22,0 0.54,0.18 0.54,0.58 0,0.52 -0.59,0.66 -0.93,0.66 -0.57,0 -0.92,-0.53 -1.04,-0.76 -0.25,0.66 -0.79,0.76 -1.08,0.76 -1.04,0 -1.61,-1.29 -1.61,-1.53 0,-0.1 0.1,-0.1 0.12,-0.1 0.08,0 0.11,0.02 0.13,0.11 0.34,1.05 1,1.3 1.34,1.3 0.19,0 0.54,-0.09 0.54,-0.67 0,-0.31 -0.17,-0.97 -0.54,-2.36 -0.16,-0.62 -0.51,-1.04 -0.95,-1.04 -0.06,0 -0.29,0 -0.5,0.13 0.25,0.05 0.47,0.26 0.47,0.54 0,0.27 -0.22,0.35 -0.37,0.35 -0.3,0 -0.55,-0.26 -0.55,-0.58 0,-0.46 0.5,-0.65 0.94,-0.65 0.66,0 1.02,0.69 1.05,0.75 0.12,-0.37 0.48,-0.75 1.08,-0.75 1.02,0 1.59,1.28 1.59,1.53 0,0.1 -0.09,0.1 -0.12,0.1 -0.09,0 -0.11,-0.05 -0.13,-0.11 -0.33,-1.07 -1,-1.31 -1.32,-1.31 -0.39,0 -0.55,0.32 -0.55,0.66 0,0.22 0.06,0.44 0.17,0.87 z"
   inkscape:connector-curvature="0"
   style="fill:#000000;stroke-width:0" />
<path
   id="path2161"
   d="m 388.44,708.38 h 0.68 c 0.14,0 0.23,0 0.23,0.15 0,0.1 -0.09,0.1 -0.21,0.1 h -0.66 c 0.16,0.88 0.22,1.2 0.28,1.4 0.03,0.16 0.19,0.3 0.35,0.3 0.01,0 0.2,0 0.33,-0.08 -0.28,-0.09 -0.3,-0.34 -0.3,-0.38 0,-0.16 0.11,-0.26 0.28,-0.26 0.18,0 0.39,0.16 0.39,0.42 0,0.32 -0.34,0.5 -0.7,0.5 -0.3,0 -0.65,-0.18 -0.84,-0.52 -0.13,-0.26 -0.19,-0.58 -0.34,-1.38 h -0.55 c -0.14,0 -0.23,0 -0.23,-0.16 0,-0.09 0.09,-0.09 0.22,-0.09 h 0.51 c 0,-0.04 -0.44,-2.55 -0.61,-3.29 -0.04,-0.15 -0.16,-0.68 -0.49,-0.68 -0.01,0 -0.18,0 -0.31,0.08 0.29,0.09 0.31,0.34 0.31,0.38 0,0.16 -0.12,0.26 -0.28,0.26 -0.19,0 -0.4,-0.16 -0.4,-0.42 0,-0.32 0.33,-0.5 0.68,-0.5 0.45,0 0.75,0.46 0.84,0.61 0.25,0.47 0.41,1.33 0.42,1.41 z"
   inkscape:connector-curvature="0"
   style="fill:#000000;stroke-width:0" />
<path
   id="path2163"
   d="m 393.64,709.61 v 0.07 l -0.01,0.08 v 0.08 0.08 l -0.01,0.17 -0.01,0.17 -0.02,0.18 -0.02,0.19 -0.02,0.2 -0.04,0.2 -0.04,0.2 -0.04,0.21 -0.06,0.21 -0.06,0.21 -0.07,0.21 -0.08,0.21 -0.04,0.11 -0.04,0.11 -0.05,0.1 -0.05,0.11 c -0.6,1.22 -1.46,1.87 -1.56,1.87 -0.06,0 -0.1,-0.04 -0.1,-0.1 0,-0.03 0,-0.05 0.19,-0.23 0.98,-0.99 1.55,-2.57 1.55,-4.64 0,-1.7 -0.37,-3.45 -1.61,-4.7 -0.13,-0.12 -0.13,-0.14 -0.13,-0.17 0,-0.06 0.04,-0.1 0.1,-0.1 0.1,0 1,0.68 1.59,1.94 0.51,1.09 0.63,2.19 0.63,3.03 z"
   inkscape:connector-curvature="0"
   style="fill:#000000;stroke-width:0" />
</g>  </g>
</svg>
