<?xml version="1.0" encoding="UTF-8" standalone="no"?>
<!-- Created with Inkscape (http://www.inkscape.org/) -->

<svg
   xmlns:ns0="http://www.iki.fi/pav/software/textext/"
   xmlns:dc="http://purl.org/dc/elements/1.1/"
   xmlns:cc="http://creativecommons.org/ns#"
   xmlns:rdf="http://www.w3.org/1999/02/22-rdf-syntax-ns#"
   xmlns:svg="http://www.w3.org/2000/svg"
   xmlns="http://www.w3.org/2000/svg"
   xmlns:sodipodi="http://sodipodi.sourceforge.net/DTD/sodipodi-0.dtd"
   xmlns:inkscape="http://www.inkscape.org/namespaces/inkscape"
   width="150mm"
   height="60mm"
   viewBox="0 0 150 60"
   version="1.1"
   id="svg8"
   inkscape:version="0.92.3 (2405546, 2018-03-11)"
   sodipodi:docname="003_time-position.svg"
   inkscape:export-filename="../png/003_time-position.png"
   inkscape:export-xdpi="300"
   inkscape:export-ydpi="300">
  <sodipodi:namedview
     id="base"
     pagecolor="#ffffff"
     bordercolor="#666666"
     borderopacity="1.0"
     inkscape:pageopacity="0.0"
     inkscape:pageshadow="2"
     inkscape:zoom="2.0000001"
     inkscape:cx="275.23254"
     inkscape:cy="130.63022"
     inkscape:document-units="mm"
     inkscape:current-layer="layer1"
     showgrid="false"
     inkscape:window-width="1853"
     inkscape:window-height="1025"
     inkscape:window-x="690"
     inkscape:window-y="27"
     inkscape:window-maximized="1" />
  <defs
     id="defs2">
    <marker
       inkscape:stockid="Arrow1Mend"
       orient="auto"
       refY="0"
       refX="0"
       id="marker8888"
       style="overflow:visible"
       inkscape:isstock="true">
      <path
         id="path8886"
         d="M 0,0 5,-5 -12.5,0 5,5 Z"
         style="fill:#000000;fill-opacity:1;fill-rule:evenodd;stroke:#000000;stroke-width:1.00000003pt;stroke-opacity:1"
         transform="matrix(-0.4,0,0,-0.4,-4,0)"
         inkscape:connector-curvature="0" />
    </marker>
    <marker
       inkscape:stockid="Arrow1Mend"
       orient="auto"
       refY="0"
       refX="0"
       id="Arrow1Mend"
       style="overflow:visible"
       inkscape:isstock="true">
      <path
         id="path826"
         d="M 0,0 5,-5 -12.5,0 5,5 Z"
         style="fill:#000000;fill-opacity:1;fill-rule:evenodd;stroke:#000000;stroke-width:1.00000003pt;stroke-opacity:1"
         transform="matrix(-0.4,0,0,-0.4,-4,0)"
         inkscape:connector-curvature="0" />
    </marker>
    <marker
       inkscape:stockid="Arrow2Mend"
       orient="auto"
       refY="0"
       refX="0"
       id="Arrow2Mend"
       style="overflow:visible"
       inkscape:isstock="true">
      <path
         id="path844"
         style="fill:#000000;fill-opacity:1;fill-rule:evenodd;stroke:#000000;stroke-width:0.625;stroke-linejoin:round;stroke-opacity:1"
         d="M 8.7185878,4.0337352 -2.2072895,0.01601326 8.7185884,-4.0017078 c -1.7454984,2.3720609 -1.7354408,5.6174519 -6e-7,8.035443 z"
         transform="scale(-0.6)"
         inkscape:connector-curvature="0" />
    </marker>
    <marker
       inkscape:stockid="Arrow1Lend"
       orient="auto"
       refY="0"
       refX="0"
       id="marker5364"
       style="overflow:visible"
       inkscape:isstock="true">
      <path
         inkscape:connector-curvature="0"
         id="path5362"
         d="M 0,0 5,-5 -12.5,0 5,5 Z"
         style="fill:#000000;fill-opacity:1;fill-rule:evenodd;stroke:#000000;stroke-width:1.00000003pt;stroke-opacity:1"
         transform="matrix(-0.8,0,0,-0.8,-10,0)" />
    </marker>
    <marker
       inkscape:isstock="true"
       style="overflow:visible"
       id="Arrow2Mend-0"
       refX="0"
       refY="0"
       orient="auto"
       inkscape:stockid="Arrow2Mend">
      <path
         transform="scale(-0.6)"
         d="M 8.7185878,4.0337352 -2.2072895,0.01601326 8.7185884,-4.0017078 c -1.7454984,2.3720609 -1.7354408,5.6174519 -6e-7,8.035443 z"
         style="fill:#000000;fill-opacity:1;fill-rule:evenodd;stroke:#000000;stroke-width:0.625;stroke-linejoin:round;stroke-opacity:1"
         id="path844-6"
         inkscape:connector-curvature="0" />
    </marker>
    <marker
       inkscape:isstock="true"
       style="overflow:visible"
       id="marker5364-2"
       refX="0"
       refY="0"
       orient="auto"
       inkscape:stockid="Arrow1Lend">
      <path
         transform="matrix(-0.8,0,0,-0.8,-10,0)"
         style="fill:#000000;fill-opacity:1;fill-rule:evenodd;stroke:#000000;stroke-width:1.00000003pt;stroke-opacity:1"
         d="M 0,0 5,-5 -12.5,0 5,5 Z"
         id="path5362-6"
         inkscape:connector-curvature="0" />
    </marker>
    <marker
       inkscape:isstock="true"
       style="overflow:visible"
       id="Arrow2Mend-0-2"
       refX="0"
       refY="0"
       orient="auto"
       inkscape:stockid="Arrow2Mend">
      <path
         inkscape:connector-curvature="0"
         transform="scale(-0.6)"
         d="M 8.7185878,4.0337352 -2.2072895,0.01601326 8.7185884,-4.0017078 c -1.7454984,2.3720609 -1.7354408,5.6174519 -6e-7,8.035443 z"
         style="fill:#000000;fill-opacity:1;fill-rule:evenodd;stroke:#000000;stroke-width:0.625;stroke-linejoin:round;stroke-opacity:1"
         id="path844-6-3" />
    </marker>
    <marker
       inkscape:isstock="true"
       style="overflow:visible"
       id="Arrow2Mend-0-2-7"
       refX="0"
       refY="0"
       orient="auto"
       inkscape:stockid="Arrow2Mend">
      <path
         inkscape:connector-curvature="0"
         transform="scale(-0.6)"
         d="M 8.7185878,4.0337352 -2.2072895,0.01601326 8.7185884,-4.0017078 c -1.7454984,2.3720609 -1.7354408,5.6174519 -6e-7,8.035443 z"
         style="fill:#000000;fill-opacity:1;fill-rule:evenodd;stroke:#000000;stroke-width:0.625;stroke-linejoin:round;stroke-opacity:1"
         id="path844-6-3-2" />
    </marker>
  </defs>
  <metadata
     id="metadata5">
    <rdf:RDF>
      <cc:Work
         rdf:about="">
        <dc:format>image/svg+xml</dc:format>
        <dc:type
           rdf:resource="http://purl.org/dc/dcmitype/StillImage" />
        <dc:title></dc:title>
      </cc:Work>
    </rdf:RDF>
  </metadata>
  <g
     id="layer1"
     inkscape:groupmode="layer"
     inkscape:label="レイヤー 1"
     transform="translate(0,-237)">
    <g
       ns0:preamble="/home/daishi/.inkscape/textext/my.sty"
       ns0:text="\\begin{eqnarray}\nx \\nonumber\n\\end{eqnarray}"
       word-spacing="normal"
       letter-spacing="normal"
       font-size-adjust="none"
       font-stretch="normal"
       font-weight="normal"
       font-variant="normal"
       font-style="normal"
       stroke-miterlimit="10.433"
       xml:space="preserve"
       transform="matrix(1,0,0,-1,-342.35728,967.88782)"
       id="content"
       style="font-style:normal;font-variant:normal;font-weight:normal;font-stretch:normal;letter-spacing:normal;word-spacing:normal;text-anchor:start;fill:none;fill-opacity:1;fill-rule:evenodd;stroke:#000000;stroke-linecap:butt;stroke-linejoin:miter;stroke-miterlimit:10.43299961;stroke-dasharray:none;stroke-dashoffset:0;stroke-opacity:1">
<path
   id="path1157"
   d="m 385.81,710.12 0.01,0.03 v 0.03 l 0.01,0.03 0.01,0.04 0.01,0.04 0.01,0.04 0.02,0.04 0.01,0.05 0.02,0.04 0.01,0.05 0.02,0.05 0.02,0.05 0.03,0.05 0.02,0.05 0.03,0.05 0.02,0.05 0.03,0.05 0.03,0.04 0.04,0.05 0.03,0.04 0.04,0.05 0.04,0.04 0.04,0.04 0.05,0.03 0.04,0.03 0.05,0.03 0.03,0.01 0.02,0.02 0.03,0.01 0.03,0.01 0.02,0.01 h 0.03 l 0.03,0.01 0.03,0.01 h 0.03 0.03 l 0.03,0.01 h 0.04 c 0.05,0 0.28,0 0.49,-0.13 -0.27,-0.05 -0.47,-0.3 -0.47,-0.54 0,-0.16 0.1,-0.35 0.38,-0.35 0.21,0 0.53,0.18 0.53,0.58 0,0.52 -0.59,0.66 -0.92,0.66 -0.58,0 -0.93,-0.53 -1.05,-0.76 -0.25,0.66 -0.79,0.76 -1.08,0.76 -1.04,0 -1.6,-1.29 -1.6,-1.53 0,-0.1 0.1,-0.1 0.12,-0.1 0.08,0 0.11,0.02 0.13,0.11 0.34,1.05 0.99,1.3 1.33,1.3 0.19,0 0.54,-0.09 0.54,-0.67 0,-0.31 -0.17,-0.97 -0.54,-2.36 -0.16,-0.62 -0.51,-1.04 -0.95,-1.04 -0.06,0 -0.29,0 -0.49,0.13 0.24,0.05 0.46,0.26 0.46,0.54 0,0.27 -0.22,0.35 -0.36,0.35 -0.3,0 -0.55,-0.26 -0.55,-0.58 0,-0.46 0.5,-0.65 0.93,-0.65 0.66,0 1.02,0.69 1.05,0.75 0.12,-0.37 0.48,-0.75 1.08,-0.75 1.03,0 1.59,1.28 1.59,1.53 0,0.1 -0.09,0.1 -0.12,0.1 -0.09,0 -0.1,-0.05 -0.13,-0.11 -0.32,-1.07 -1,-1.31 -1.32,-1.31 -0.39,0 -0.55,0.32 -0.55,0.66 0,0.22 0.06,0.44 0.17,0.87 z"
   inkscape:connector-curvature="0"
   style="fill:#000000;stroke-width:0" />
</g>    <path
       d="m 74.568124,258.13738 a 1.0205041,0.8018086 0 0 1 -0.997117,0.81953 1.0205041,0.8018086 0 0 1 -1.043367,-0.78318 1.0205041,0.8018086 0 0 1 0.996466,-0.82002 1.0205041,0.8018086 0 0 1 1.043988,0.78267"
       sodipodi:open="true"
       sodipodi:end="6.2595797"
       sodipodi:start="6.2608282"
       sodipodi:ry="0.8018086"
       sodipodi:rx="1.0205041"
       sodipodi:cy="258.1553"
       sodipodi:cx="73.547874"
       sodipodi:type="arc"
       id="path5229-3-5-6-9"
       style="fill:#000000;fill-opacity:1;stroke:#000000;stroke-width:0.09770183;stroke-miterlimit:4;stroke-dasharray:none;stroke-dashoffset:0;stroke-opacity:1;paint-order:fill markers stroke" />
    <path
       sodipodi:nodetypes="cc"
       inkscape:connector-curvature="0"
       id="path815"
       d="M 50.794451,282.55525 H 114.9378"
       style="fill:none;stroke:#000000;stroke-width:0.40000001;stroke-linecap:butt;stroke-linejoin:miter;stroke-miterlimit:4;stroke-dasharray:none;stroke-opacity:1;marker-end:url(#marker8888)" />
    <path
       sodipodi:nodetypes="cc"
       inkscape:connector-curvature="0"
       id="path815-7"
       d="M 53.229075,285.668 V 242.69132"
       style="fill:none;stroke:#000000;stroke-width:0.40000001;stroke-linecap:butt;stroke-linejoin:miter;stroke-miterlimit:4;stroke-dasharray:none;stroke-opacity:1;marker-end:url(#Arrow1Mend)" />
    <g
       id="g9032"
       transform="matrix(1,0,0,-1,-311.67874,1001.0108)"
       xml:space="preserve"
       stroke-miterlimit="10.433"
       font-style="normal"
       font-variant="normal"
       font-weight="normal"
       font-stretch="normal"
       font-size-adjust="none"
       letter-spacing="normal"
       word-spacing="normal"
       ns0:text="\\begin{eqnarray}\nt \\nonumber\n\\end{eqnarray}"
       ns0:preamble="/home/daishi/.inkscape/textext/my.sty"
       style="font-style:normal;font-variant:normal;font-weight:normal;font-stretch:normal;letter-spacing:normal;word-spacing:normal;text-anchor:start;fill:none;fill-opacity:1;fill-rule:evenodd;stroke:#000000;stroke-linecap:butt;stroke-linejoin:miter;stroke-miterlimit:10.43299961;stroke-dasharray:none;stroke-dashoffset:0;stroke-opacity:1">
<path
   d="m 385.58,711.1 h 0.94 c 0.2,0 0.3,0 0.3,0.2 0,0.11 -0.1,0.11 -0.28,0.11 h -0.88 c 0.36,1.41 0.41,1.61 0.41,1.67 0,0.16 -0.12,0.26 -0.29,0.26 -0.03,0 -0.31,-0.01 -0.4,-0.35 l -0.39,-1.58 h -0.94 c -0.19,0 -0.29,0 -0.29,-0.19 0,-0.12 0.07,-0.12 0.28,-0.12 h 0.87 c -0.72,-2.82 -0.76,-2.99 -0.76,-3.17 0,-0.54 0.38,-0.91 0.92,-0.91 1.02,0 1.59,1.45 1.59,1.53 0,0.1 -0.08,0.1 -0.12,0.1 -0.09,0 -0.1,-0.04 -0.15,-0.14 -0.43,-1.04 -0.96,-1.28 -1.3,-1.28 -0.21,0 -0.31,0.13 -0.31,0.46 0,0.24 0.02,0.31 0.06,0.48 z"
   id="path9030"
   inkscape:connector-curvature="0"
   style="fill:#000000;stroke-width:0" />
</g>    <path
       d="m 54.268925,258.36193 a 1.0205041,0.8018086 0 0 1 -0.997117,0.81952 1.0205041,0.8018086 0 0 1 -1.043366,-0.78317 1.0205041,0.8018086 0 0 1 0.996465,-0.82002 1.0205041,0.8018086 0 0 1 1.043989,0.78267"
       sodipodi:open="true"
       sodipodi:end="6.2595797"
       sodipodi:start="6.2608282"
       sodipodi:ry="0.8018086"
       sodipodi:rx="1.0205041"
       sodipodi:cy="258.37985"
       sodipodi:cx="53.248676"
       sodipodi:type="arc"
       id="path5229-3-5-6-9-3"
       style="fill:#000000;fill-opacity:1;stroke:#000000;stroke-width:0.09770183;stroke-miterlimit:4;stroke-dasharray:none;stroke-dashoffset:0;stroke-opacity:1;paint-order:fill markers stroke" />
    <path
       inkscape:connector-curvature="0"
       id="path9069"
       d="m 54.268897,258.361 20.299226,-0.22355"
       style="fill:none;stroke:#000000;stroke-width:0.26458332;stroke-linecap:butt;stroke-linejoin:miter;stroke-miterlimit:4;stroke-dasharray:0.26458332, 0.26458332;stroke-dashoffset:0;stroke-opacity:1" />
    <path
       sodipodi:nodetypes="cc"
       inkscape:connector-curvature="0"
       id="path9069-6"
       d="m 73.732089,282.94018 -0.22355,-24.53256"
       style="fill:none;stroke:#000000;stroke-width:0.26458332;stroke-linecap:butt;stroke-linejoin:miter;stroke-miterlimit:4;stroke-dasharray:0.26458332, 0.26458332;stroke-dashoffset:0;stroke-opacity:1" />
    <path
       d="m 74.706711,282.62829 a 1.0205041,0.8018086 0 0 1 -0.997117,0.81952 1.0205041,0.8018086 0 0 1 -1.043366,-0.78318 1.0205041,0.8018086 0 0 1 0.996465,-0.82001 1.0205041,0.8018086 0 0 1 1.043989,0.78266"
       sodipodi:open="true"
       sodipodi:end="6.2595797"
       sodipodi:start="6.2608282"
       sodipodi:ry="0.8018086"
       sodipodi:rx="1.0205041"
       sodipodi:cy="282.64621"
       sodipodi:cx="73.686462"
       sodipodi:type="arc"
       id="path5229-3-5-6-9-3-0"
       style="fill:#000000;fill-opacity:1;stroke:#000000;stroke-width:0.09770183;stroke-miterlimit:4;stroke-dasharray:none;stroke-dashoffset:0;stroke-opacity:1;paint-order:fill markers stroke" />
    <g
       style="font-style:normal;font-variant:normal;font-weight:normal;font-stretch:normal;letter-spacing:normal;word-spacing:normal;text-anchor:start;fill:none;fill-opacity:1;fill-rule:evenodd;stroke:#000000;stroke-linecap:butt;stroke-linejoin:miter;stroke-miterlimit:10.43299961;stroke-dasharray:none;stroke-dashoffset:0;stroke-opacity:1"
       ns0:preamble="/home/daishi/.inkscape/textext/my.sty"
       ns0:text="\\begin{eqnarray}\nx(t)  \\nonumber\n\\end{eqnarray}"
       word-spacing="normal"
       letter-spacing="normal"
       font-size-adjust="none"
       font-stretch="normal"
       font-weight="normal"
       font-variant="normal"
       font-style="normal"
       stroke-miterlimit="10.433"
       xml:space="preserve"
       transform="matrix(1,0,0,-1,-298.14179,961.43335)"
       id="g9149">
<path
   id="path9141"
   d="m 380.14,710.12 v 0.03 l 0.01,0.03 0.01,0.03 0.01,0.04 0.01,0.04 0.01,0.04 0.01,0.04 0.02,0.05 0.01,0.04 0.02,0.05 0.02,0.05 0.02,0.05 0.02,0.05 0.03,0.05 0.02,0.05 0.03,0.05 0.03,0.05 0.03,0.04 0.03,0.05 0.04,0.04 0.04,0.05 0.04,0.04 0.04,0.04 0.04,0.03 0.05,0.03 0.05,0.03 0.02,0.01 0.03,0.02 0.03,0.01 0.02,0.01 0.03,0.01 h 0.03 l 0.03,0.01 0.03,0.01 h 0.03 0.03 l 0.03,0.01 h 0.03 c 0.05,0 0.29,0 0.5,-0.13 -0.28,-0.05 -0.48,-0.3 -0.48,-0.54 0,-0.16 0.11,-0.35 0.38,-0.35 0.22,0 0.54,0.18 0.54,0.58 0,0.52 -0.59,0.66 -0.93,0.66 -0.58,0 -0.93,-0.53 -1.04,-0.76 -0.25,0.66 -0.79,0.76 -1.08,0.76 -1.04,0 -1.61,-1.29 -1.61,-1.53 0,-0.1 0.1,-0.1 0.12,-0.1 0.08,0 0.11,0.02 0.13,0.11 0.34,1.05 1,1.3 1.34,1.3 0.19,0 0.54,-0.09 0.54,-0.67 0,-0.31 -0.17,-0.97 -0.54,-2.36 -0.16,-0.62 -0.51,-1.04 -0.95,-1.04 -0.06,0 -0.29,0 -0.5,0.13 0.25,0.05 0.47,0.26 0.47,0.54 0,0.27 -0.22,0.35 -0.37,0.35 -0.3,0 -0.55,-0.26 -0.55,-0.58 0,-0.46 0.5,-0.65 0.94,-0.65 0.66,0 1.02,0.69 1.05,0.75 0.12,-0.37 0.48,-0.75 1.08,-0.75 1.02,0 1.59,1.28 1.59,1.53 0,0.1 -0.09,0.1 -0.12,0.1 -0.09,0 -0.11,-0.05 -0.13,-0.11 -0.33,-1.07 -1.01,-1.31 -1.32,-1.31 -0.39,0 -0.55,0.32 -0.55,0.66 0,0.22 0.06,0.44 0.17,0.87 z"
   inkscape:connector-curvature="0"
   style="fill:#000000;stroke-width:0" />
<path
   id="path9143"
   d="m 385.8,704.74 v 0.01 0 0 0.01 0 0 0.01 h -0.01 v 0 0.01 0 0.01 h -0.01 v 0.01 h -0.01 v 0.01 l -0.01,0.01 v 0 0.01 h -0.01 v 0.01 h -0.01 v 0 0.01 h -0.01 v 0.01 h -0.01 v 0.01 h -0.01 v 0.01 h -0.01 v 0.01 l -0.01,0.01 v 0 l -0.01,0.01 -0.01,0.01 v 0 l -0.01,0.01 -0.01,0.01 v 0 l -0.01,0.01 -0.01,0.01 c -1.25,1.25 -1.56,3.13 -1.56,4.65 0,1.73 0.37,3.46 1.6,4.7 0.13,0.12 0.13,0.14 0.13,0.17 0,0.07 -0.04,0.1 -0.1,0.1 -0.1,0 -1,-0.68 -1.59,-1.94 -0.5,-1.09 -0.62,-2.2 -0.62,-3.03 0,-0.78 0.11,-1.98 0.65,-3.1 0.6,-1.22 1.46,-1.87 1.56,-1.87 0.06,0 0.1,0.03 0.1,0.1 z"
   inkscape:connector-curvature="0"
   style="fill:#000000;stroke-width:0" />
<path
   id="path9145"
   d="m 388.43,711.1 h 0.93 c 0.2,0 0.3,0 0.3,0.2 0,0.11 -0.1,0.11 -0.27,0.11 h -0.88 c 0.36,1.41 0.41,1.61 0.41,1.67 0,0.16 -0.12,0.26 -0.29,0.26 -0.03,0 -0.31,-0.01 -0.4,-0.35 l -0.39,-1.58 h -0.94 c -0.2,0 -0.3,0 -0.3,-0.19 0,-0.12 0.08,-0.12 0.28,-0.12 h 0.88 c -0.72,-2.82 -0.76,-2.99 -0.76,-3.17 0,-0.54 0.38,-0.91 0.92,-0.91 1.02,0 1.58,1.45 1.58,1.53 0,0.1 -0.08,0.1 -0.11,0.1 -0.09,0 -0.1,-0.04 -0.16,-0.14 -0.42,-1.04 -0.95,-1.28 -1.29,-1.28 -0.21,0 -0.31,0.13 -0.31,0.46 0,0.24 0.02,0.31 0.06,0.48 z"
   inkscape:connector-curvature="0"
   style="fill:#000000;stroke-width:0" />
<path
   id="path9147"
   d="m 392.85,709.61 v 0.07 0.08 0.08 0.08 l -0.01,0.17 -0.01,0.17 -0.02,0.18 -0.02,0.19 -0.03,0.2 -0.03,0.2 -0.04,0.2 -0.05,0.21 -0.05,0.21 -0.06,0.21 -0.07,0.21 -0.08,0.21 -0.04,0.11 -0.05,0.11 -0.04,0.1 -0.05,0.11 c -0.6,1.22 -1.46,1.87 -1.56,1.87 -0.06,0 -0.1,-0.04 -0.1,-0.1 0,-0.03 0,-0.05 0.19,-0.23 0.98,-0.99 1.54,-2.57 1.54,-4.64 0,-1.7 -0.36,-3.45 -1.6,-4.7 -0.13,-0.12 -0.13,-0.14 -0.13,-0.17 0,-0.06 0.04,-0.1 0.1,-0.1 0.1,0 1,0.68 1.59,1.94 0.5,1.09 0.62,2.19 0.62,3.03 z"
   inkscape:connector-curvature="0"
   style="fill:#000000;stroke-width:0" />
</g>    <path
       d="m 70.605668,265.89342 a 1.0205041,0.8018086 0 0 1 -0.997117,0.81953 1.0205041,0.8018086 0 0 1 -1.043367,-0.78318 1.0205041,0.8018086 0 0 1 0.996466,-0.82001 1.0205041,0.8018086 0 0 1 1.043989,0.78266"
       sodipodi:open="true"
       sodipodi:end="6.2595797"
       sodipodi:start="6.2608282"
       sodipodi:ry="0.8018086"
       sodipodi:rx="1.0205041"
       sodipodi:cy="265.91135"
       sodipodi:cx="69.585419"
       sodipodi:type="arc"
       id="path5229-3-5-6-9-36"
       style="fill:none;fill-opacity:1;stroke:#000000;stroke-width:0.29800001;stroke-miterlimit:4;stroke-dasharray:none;stroke-dashoffset:0;stroke-opacity:1;paint-order:fill markers stroke" />
    <path
       d="m 66.985787,271.87905 a 1.0205041,0.8018086 0 0 1 -0.997117,0.81953 1.0205041,0.8018086 0 0 1 -1.043367,-0.78318 1.0205041,0.8018086 0 0 1 0.996466,-0.82002 1.0205041,0.8018086 0 0 1 1.043989,0.78267"
       sodipodi:open="true"
       sodipodi:end="6.2595797"
       sodipodi:start="6.2608282"
       sodipodi:ry="0.8018086"
       sodipodi:rx="1.0205041"
       sodipodi:cy="271.89697"
       sodipodi:cx="65.965538"
       sodipodi:type="arc"
       id="path5229-3-5-6-9-36-7"
       style="fill:none;fill-opacity:1;stroke:#000000;stroke-width:0.29800001;stroke-miterlimit:4;stroke-dasharray:none;stroke-dashoffset:0;stroke-opacity:1;paint-order:fill markers stroke" />
    <path
       d="m 64.007138,276.11864 a 1.0205041,0.8018086 0 0 1 -0.997117,0.81953 1.0205041,0.8018086 0 0 1 -1.043367,-0.78318 1.0205041,0.8018086 0 0 1 0.996466,-0.82001 1.0205041,0.8018086 0 0 1 1.043989,0.78266"
       sodipodi:open="true"
       sodipodi:end="6.2595797"
       sodipodi:start="6.2608282"
       sodipodi:ry="0.8018086"
       sodipodi:rx="1.0205041"
       sodipodi:cy="276.13657"
       sodipodi:cx="62.986889"
       sodipodi:type="arc"
       id="path5229-3-5-6-9-36-7-5"
       style="fill:none;fill-opacity:1;stroke:#000000;stroke-width:0.29800001;stroke-miterlimit:4;stroke-dasharray:none;stroke-dashoffset:0;stroke-opacity:1;paint-order:fill markers stroke" />
    <path
       d="m 60.730569,279.37249 a 1.0205041,0.8018086 0 0 1 -0.997117,0.81952 1.0205041,0.8018086 0 0 1 -1.043367,-0.78317 1.0205041,0.8018086 0 0 1 0.996466,-0.82002 1.0205041,0.8018086 0 0 1 1.043988,0.78267"
       sodipodi:open="true"
       sodipodi:end="6.2595797"
       sodipodi:start="6.2608282"
       sodipodi:ry="0.8018086"
       sodipodi:rx="1.0205041"
       sodipodi:cy="279.39041"
       sodipodi:cx="59.71032"
       sodipodi:type="arc"
       id="path5229-3-5-6-9-36-7-5-3"
       style="fill:none;fill-opacity:1;stroke:#000000;stroke-width:0.29800001;stroke-miterlimit:4;stroke-dasharray:none;stroke-dashoffset:0;stroke-opacity:1;paint-order:fill markers stroke" />
    <path
       d="m 57.24421,281.41097 a 1.0205041,0.8018086 0 0 1 -0.997117,0.81953 1.0205041,0.8018086 0 0 1 -1.043367,-0.78318 1.0205041,0.8018086 0 0 1 0.996466,-0.82002 1.0205041,0.8018086 0 0 1 1.043989,0.78267"
       sodipodi:open="true"
       sodipodi:end="6.2595797"
       sodipodi:start="6.2608282"
       sodipodi:ry="0.8018086"
       sodipodi:rx="1.0205041"
       sodipodi:cy="281.42889"
       sodipodi:cx="56.223961"
       sodipodi:type="arc"
       id="path5229-3-5-6-9-36-7-5-3-5"
       style="fill:none;fill-opacity:1;stroke:#000000;stroke-width:0.29800001;stroke-miterlimit:4;stroke-dasharray:none;stroke-dashoffset:0;stroke-opacity:1;paint-order:fill markers stroke" />
    <path
       d="m 54.287022,282.59292 a 1.0205041,0.8018086 0 0 1 -0.997117,0.81952 1.0205041,0.8018086 0 0 1 -1.043366,-0.78318 1.0205041,0.8018086 0 0 1 0.996465,-0.82001 1.0205041,0.8018086 0 0 1 1.043989,0.78266"
       sodipodi:open="true"
       sodipodi:end="6.2595797"
       sodipodi:start="6.2608282"
       sodipodi:ry="0.8018086"
       sodipodi:rx="1.0205041"
       sodipodi:cy="282.61084"
       sodipodi:cx="53.266773"
       sodipodi:type="arc"
       id="path5229-3-5-6-9-36-7-5-3-5-6"
       style="fill:none;fill-opacity:1;stroke:#000000;stroke-width:0.29800001;stroke-miterlimit:4;stroke-dasharray:none;stroke-dashoffset:0;stroke-opacity:1;paint-order:fill markers stroke" />
    <path
       d="m 54.268925,281.58428 a 1.0205041,0.8018086 0 0 1 -0.997117,0.81953 1.0205041,0.8018086 0 0 1 -1.043366,-0.78318 1.0205041,0.8018086 0 0 1 0.996465,-0.82002 1.0205041,0.8018086 0 0 1 1.043989,0.78267"
       sodipodi:open="true"
       sodipodi:end="6.2595797"
       sodipodi:start="6.2608282"
       sodipodi:ry="0.8018086"
       sodipodi:rx="1.0205041"
       sodipodi:cy="281.6022"
       sodipodi:cx="53.248676"
       sodipodi:type="arc"
       id="path5229-3-5-6-9-36-7-5-3-5-2"
       style="fill:none;fill-opacity:1;stroke:#000000;stroke-width:0.29800001;stroke-miterlimit:4;stroke-dasharray:none;stroke-dashoffset:0;stroke-opacity:1;paint-order:fill markers stroke" />
    <path
       d="m 54.268925,279.29247 a 1.0205041,0.8018086 0 0 1 -0.997117,0.81953 1.0205041,0.8018086 0 0 1 -1.043366,-0.78318 1.0205041,0.8018086 0 0 1 0.996465,-0.82002 1.0205041,0.8018086 0 0 1 1.043989,0.78267"
       sodipodi:open="true"
       sodipodi:end="6.2595797"
       sodipodi:start="6.2608282"
       sodipodi:ry="0.8018086"
       sodipodi:rx="1.0205041"
       sodipodi:cy="279.31039"
       sodipodi:cx="53.248676"
       sodipodi:type="arc"
       id="path5229-3-5-6-9-36-7-5-3-9"
       style="fill:none;fill-opacity:1;stroke:#000000;stroke-width:0.29800001;stroke-miterlimit:4;stroke-dasharray:none;stroke-dashoffset:0;stroke-opacity:1;paint-order:fill markers stroke" />
    <path
       d="m 54.292313,276.15871 a 1.0205041,0.8018086 0 0 1 -0.997117,0.81953 1.0205041,0.8018086 0 0 1 -1.043366,-0.78318 1.0205041,0.8018086 0 0 1 0.996465,-0.82002 1.0205041,0.8018086 0 0 1 1.043989,0.78267"
       sodipodi:open="true"
       sodipodi:end="6.2595797"
       sodipodi:start="6.2608282"
       sodipodi:ry="0.8018086"
       sodipodi:rx="1.0205041"
       sodipodi:cy="276.17664"
       sodipodi:cx="53.272064"
       sodipodi:type="arc"
       id="path5229-3-5-6-9-36-7-5-1"
       style="fill:none;fill-opacity:1;stroke:#000000;stroke-width:0.29800001;stroke-miterlimit:4;stroke-dasharray:none;stroke-dashoffset:0;stroke-opacity:1;paint-order:fill markers stroke" />
    <path
       d="m 54.300721,271.91268 a 1.0205041,0.8018086 0 0 1 -0.997117,0.81953 1.0205041,0.8018086 0 0 1 -1.043367,-0.78318 1.0205041,0.8018086 0 0 1 0.996466,-0.82002 1.0205041,0.8018086 0 0 1 1.043989,0.78267"
       sodipodi:open="true"
       sodipodi:end="6.2595797"
       sodipodi:start="6.2608282"
       sodipodi:ry="0.8018086"
       sodipodi:rx="1.0205041"
       sodipodi:cy="271.9306"
       sodipodi:cx="53.280472"
       sodipodi:type="arc"
       id="path5229-3-5-6-9-36-7-2"
       style="fill:none;fill-opacity:1;stroke:#000000;stroke-width:0.29800001;stroke-miterlimit:4;stroke-dasharray:none;stroke-dashoffset:0;stroke-opacity:1;paint-order:fill markers stroke" />
    <path
       d="m 54.275674,265.89342 a 1.0205041,0.8018086 0 0 1 -0.997117,0.81953 1.0205041,0.8018086 0 0 1 -1.043367,-0.78318 1.0205041,0.8018086 0 0 1 0.996466,-0.82001 1.0205041,0.8018086 0 0 1 1.043988,0.78266"
       sodipodi:open="true"
       sodipodi:end="6.2595797"
       sodipodi:start="6.2608282"
       sodipodi:ry="0.8018086"
       sodipodi:rx="1.0205041"
       sodipodi:cy="265.91135"
       sodipodi:cx="53.255424"
       sodipodi:type="arc"
       id="path5229-3-5-6-9-36-70"
       style="fill:none;fill-opacity:1;stroke:#000000;stroke-width:0.29800001;stroke-miterlimit:4;stroke-dasharray:none;stroke-dashoffset:0;stroke-opacity:1;paint-order:fill markers stroke" />
    <path
       sodipodi:nodetypes="ccccccc"
       inkscape:connector-curvature="0"
       id="path5354-7"
       d="m 49.616444,268.01381 c 0.0935,-1.81457 -0.24023,-1.08688 -0.287,-2.12886 0.0194,-0.82701 0.60638,-0.66627 0.57614,-1.44602 0.003,-0.96164 -0.44786,-0.97335 -0.49947,-1.85231 -0.0165,-0.79391 0.60153,-0.6143 0.57814,-1.66335 0.008,-0.92272 -0.41995,-1.07604 -0.46772,-1.74618 -0.0117,-0.62199 0.0349,-0.67543 0.0234,-1.77452"
       style="fill:none;stroke:#000000;stroke-width:0.29178572;stroke-linecap:butt;stroke-linejoin:miter;stroke-miterlimit:4;stroke-dasharray:none;stroke-opacity:1;marker-end:url(#Arrow2Mend-0-2)" />
    <path
       inkscape:connector-curvature="0"
       id="path9069-5"
       d="m 54.277229,265.89249 14.14455,-0.0231"
       style="fill:none;stroke:#000000;stroke-width:0.20957102;stroke-linecap:butt;stroke-linejoin:miter;stroke-miterlimit:4;stroke-dasharray:0.20957101, 0.20957101;stroke-dashoffset:0;stroke-opacity:1"
       sodipodi:nodetypes="cc" />
    <path
       inkscape:connector-curvature="0"
       id="path9069-5-9"
       d="m 54.300691,271.91175 10.625116,0.0485"
       style="fill:none;stroke:#000000;stroke-width:0.20957102;stroke-linecap:butt;stroke-linejoin:miter;stroke-miterlimit:4;stroke-dasharray:0.20957101, 0.20957101;stroke-dashoffset:0;stroke-opacity:1"
       sodipodi:nodetypes="cc" />
    <path
       inkscape:connector-curvature="0"
       id="path9069-5-9-2"
       d="m 54.292283,276.15778 7.696596,-0.009"
       style="fill:none;stroke:#000000;stroke-width:0.20957102;stroke-linecap:butt;stroke-linejoin:miter;stroke-miterlimit:4;stroke-dasharray:0.20957101, 0.20957101;stroke-dashoffset:0;stroke-opacity:1"
       sodipodi:nodetypes="cc" />
    <path
       inkscape:connector-curvature="0"
       id="path9069-5-9-2-2"
       d="m 54.268926,279.29254 4.417593,0.0377"
       style="fill:none;stroke:#000000;stroke-width:0.20957102;stroke-linecap:butt;stroke-linejoin:miter;stroke-miterlimit:4;stroke-dasharray:0.20957101, 0.20957101;stroke-dashoffset:0;stroke-opacity:1"
       sodipodi:nodetypes="cc" />
    <path
       inkscape:connector-curvature="0"
       id="path9069-5-9-2-2-8"
       d="m 54.268926,281.58435 1.155857,0.0378"
       style="fill:none;stroke:#000000;stroke-width:0.20957102;stroke-linecap:butt;stroke-linejoin:miter;stroke-miterlimit:4;stroke-dasharray:0.20957101, 0.20957101;stroke-dashoffset:0;stroke-opacity:1"
       sodipodi:nodetypes="cc" />
    <path
       sodipodi:nodetypes="cc"
       inkscape:connector-curvature="0"
       id="path9069-6-9"
       d="m 69.572444,282.52163 -0.02511,-16.09897"
       style="fill:none;stroke:#000000;stroke-width:0.26458332;stroke-linecap:butt;stroke-linejoin:miter;stroke-miterlimit:4;stroke-dasharray:0.26458332, 0.26458332;stroke-dashoffset:0;stroke-opacity:1" />
    <path
       sodipodi:nodetypes="cc"
       inkscape:connector-curvature="0"
       id="path9069-6-9-7"
       d="m 65.983262,282.93997 -0.07188,-10.6734"
       style="fill:none;stroke:#000000;stroke-width:0.26458332;stroke-linecap:butt;stroke-linejoin:miter;stroke-miterlimit:4;stroke-dasharray:0.26458332, 0.26458332;stroke-dashoffset:0;stroke-opacity:1" />
    <path
       sodipodi:nodetypes="cc"
       inkscape:connector-curvature="0"
       id="path9069-6-9-7-3"
       d="m 62.966455,282.93997 0.06844,-6.1365"
       style="fill:none;stroke:#000000;stroke-width:0.26458332;stroke-linecap:butt;stroke-linejoin:miter;stroke-miterlimit:4;stroke-dasharray:0.26458332, 0.26458332;stroke-dashoffset:0;stroke-opacity:1" />
    <path
       sodipodi:nodetypes="cc"
       inkscape:connector-curvature="0"
       id="path9069-6-9-7-3-1"
       d="m 59.669016,282.86981 0.06844,-2.62859"
       style="fill:none;stroke:#000000;stroke-width:0.26458332;stroke-linecap:butt;stroke-linejoin:miter;stroke-miterlimit:4;stroke-dasharray:0.26458332, 0.26458332;stroke-dashoffset:0;stroke-opacity:1" />
    <path
       sodipodi:nodetypes="ccccccc"
       inkscape:connector-curvature="0"
       id="path5354-7-5"
       d="m 63.030745,285.47752 c 1.81457,0.0935 1.08688,-0.24023 2.12886,-0.287 0.82701,0.0194 0.66627,0.60638 1.44602,0.57614 0.96164,0.003 0.97335,-0.44786 1.85231,-0.49947 0.79391,-0.0165 0.6143,0.60153 1.66335,0.57814 0.92272,0.008 1.07604,-0.41995 1.74618,-0.46772 0.62199,-0.0117 0.67543,0.0349 1.77452,0.0234"
       style="fill:none;stroke:#000000;stroke-width:0.29178572;stroke-linecap:butt;stroke-linejoin:miter;stroke-miterlimit:4;stroke-dasharray:none;stroke-opacity:1;marker-end:url(#Arrow2Mend-0-2-7)" />
    <rect
       style="fill:none;fill-opacity:1;stroke:#000000;stroke-width:0.1;stroke-miterlimit:4;stroke-dasharray:none;stroke-dashoffset:0;stroke-opacity:1;paint-order:fill markers stroke"
       id="rect1082"
       width="149.88646"
       height="59.66354"
       x="0"
       y="237.20416" />
  </g>
</svg>
